<svg xmlns="http://www.w3.org/2000/svg" xmlns:xlink="http://www.w3.org/1999/xlink" viewBox="0 0 900 300">
    <defs>
        <style>
            .Jelly1 {
                stroke: #000;
                fill: url(#linear-gradient);
            }
            
            .Jelly1,
            .Jelly12,
            .Jelly16,
            .Jelly6,
            .Jelly7,
            .Jelly8 {
                stroke-miterlimit: 10;
            }
            
            .Jelly2 {
                fill: #ffa8dd;
            }
            
            .Jelly10,
            .Jelly11,
            .Jelly12,
            .Jelly13,
            .Jelly14,
            .Jelly15,
            .Jelly16,
            .Jelly3,
            .Jelly4,
            .Jelly5,
            .Jelly6,
            .Jelly7,
            .Jelly8,
            .Jelly9 {
                opacity: 0.5;
            }
            
            .Jelly3 {
                fill: url(#linear-gradient-2);
            }
            
            .Jelly4 {
                fill: url(#linear-gradient-3);
            }
            
            .Jelly5 {
                fill: url(#linear-gradient-4);
            }
            
            .Jelly6,
            .Jelly7 {
                fill: none;
                stroke-linecap: round;
            }
            
            .Jelly12,
            .Jelly16,
            .Jelly6,
            .Jelly7,
            .Jelly8 {
                stroke: #fff;
            }
            
            .Jelly6 {
                stroke-width: 2px;
            }
            
            .Jelly7 {
                stroke-width: 5px;
            }
            
            .Jelly8 {
                fill: url(#linear-gradient-5);
            }
            
            .Jelly9 {
                fill: url(#linear-gradient-6);
            }
            
            .Jelly10 {
                fill: url(#linear-gradient-7);
            }
            
            .Jelly11 {
                fill: url(#linear-gradient-8);
            }
            
            .Jelly12 {
                fill: url(#linear-gradient-9);
            }
            
            .Jelly13 {
                fill: url(#linear-gradient-10);
            }
            
            .Jelly14 {
                fill: url(#linear-gradient-11);
            }
            
            .Jelly15 {
                fill: url(#linear-gradient-12);
            }
            
            .Jelly16 {
                fill: url(#linear-gradient-13);
            }
        </style>
        <linearGradient id="linear-gradient" y1="150" x2="900" y2="150" gradientUnits="userSpaceOnUse">
            <stop offset="0" stop-color="#00becc" />
            <stop offset="1" stop-color="#003b7a" />
        </linearGradient>
        <linearGradient id="linear-gradient-2" x1="576.8" y1="157.09" x2="838.93" y2="157.09" gradientTransform="translate(-6.56 17.38) rotate(-2.65)" gradientUnits="userSpaceOnUse">
            <stop offset="0.28" stop-color="#ffa8dd" />
            <stop offset="1" stop-color="#fff" />
        </linearGradient>
        <linearGradient id="linear-gradient-3" x1="546.84" y1="141.67" x2="808.8" y2="141.67" gradientTransform="matrix(1.1, 0.03, 0.03, -1, -32.88, 272.54)" xlink:href="#linear-gradient-2" />
        <linearGradient id="linear-gradient-4" x1="551.87" y1="145.9" x2="811.73" y2="145.9" gradientTransform="matrix(1.1, 0, 0, -1, -27.87, 286.89)" xlink:href="#linear-gradient-2" />
        <linearGradient id="linear-gradient-5" x1="440.03" y1="150.25" x2="581.32" y2="150.25" gradientUnits="userSpaceOnUse">
            <stop offset="0.28" stop-color="#fff" />
            <stop offset="1" stop-color="#00989a" />
        </linearGradient>
        <linearGradient id="linear-gradient-6" x1="355.07" y1="146.78" x2="666.74" y2="146.78" xlink:href="#linear-gradient-2" />
        <linearGradient id="linear-gradient-7" x1="344.7" y1="136.06" x2="656.37" y2="136.06" gradientTransform="matrix(1.1, 0.03, 0.03, -1, -32.88, 272.54)" xlink:href="#linear-gradient-2" />
        <linearGradient id="linear-gradient-8" x1="350.58" y1="147.54" x2="659.98" y2="147.54" gradientTransform="matrix(1.1, 0, 0, -1, -27.87, 286.89)" xlink:href="#linear-gradient-2" />
        <linearGradient id="linear-gradient-9" x1="209.14" y1="149.52" x2="422.58" y2="149.52" xlink:href="#linear-gradient-5" />
        <linearGradient id="linear-gradient-10" x1="171.87" y1="137.28" x2="434" y2="137.28" xlink:href="#linear-gradient-2" />
        <linearGradient id="linear-gradient-11" x1="178.89" y1="130.29" x2="440.85" y2="130.29" gradientTransform="matrix(1.1, 0.03, 0.03, -1, -32.88, 272.54)" xlink:href="#linear-gradient-2" />
        <linearGradient id="linear-gradient-12" x1="183.78" y1="148.8" x2="443.65" y2="148.8" gradientTransform="matrix(1.1, 0, 0, -1, -27.87, 286.89)" xlink:href="#linear-gradient-2" />
        <linearGradient id="linear-gradient-13" x1="34.61" y1="149.17" x2="175.91" y2="149.17" xlink:href="#linear-gradient-5" />
    </defs>
    <title>JellyFish1</title>
    <g id="Layer_1" data-name="Layer 1">
        <rect class="Jelly1" width="900" height="300" />
    </g>
    <g id="J1">
        <path class="Jelly2" d="M527,218.44c-16.59,0-35.5-16-35.5-35.77s23.67-32.42,23.67-32.42-23.67-12.66-23.67-32.42S510.38,82.06,527,82.06s70.1,68.19,70.1,68.19S543.57,218.44,527,218.44Z" />
        <path class="Jelly3" d="M837.88,117.08l-32.3,28s-51.53,1.19-64.67,2.18c-10.69.81-12.49,13.07-23.19,13.7-11.57.68-68.15-27.61-79.72-26.71-9.46.73,8.13,30.86-1.35,31.18-9.2.31-28.9-8.38-38-7.11-5.58.77-20.77,10.34-20.77,10.34L576.28,128s42.88,17.94,51,17.54c9.86-.49,10.79-20.78,20.91-21.5,11.09-.79,45.59,25.12,56.45,24.49,9.85-.57,16.22-28,26.31-29.05,14.28-1.49,55.65,14.57,69.77,13.41C806.46,132.45,837.88,117.08,837.88,117.08Z" />
        <path class="Jelly4" d="M861.31,176.39l-36-27.53s-56.76-.43-71.25-1.23c-11.79-.65-14-12.88-25.76-13.36-12.76-.51-65.9,17.28-78.65,16.55-10.43-.59-.25-19.65-10.69-19.83-10.13-.17-31.68,8.8-41.76,7.67-6.16-.69-23-10-23-10l-1.05,40.65S620,150.7,629,151c10.87.34,12.23,20.62,23.38,21.19,12.22.63,49.78-25.79,61.74-25.32,10.86.42,18.34,27.76,29.47,28.67,15.75,1.28,61-15.39,76.59-14.43C826.44,161.47,861.31,176.39,861.31,176.39Z" />
        <path class="Jelly5" d="M865.48,131.68,812,129.05s-37.85,11-52.35,10.8c-11.8-.15-24.9-33-36.7-33-12.76,0-37.39,28.19-50.15,28-10.44-.16-18.24-7.06-28.68-6.8-10.13.25-31.4,10.12-41.51,9.42-6.18-.43-23.32-9.07-23.32-9.07l.15,40.67s46.34-20.53,55.32-20.62c10.87-.11,12.83,20.09,24,20.2,12.23.12,49-27.86,61-27.9,10.87,0,19.15,27,30.3,27.41,15.78.62,61.27-7.13,76.86-6.83C833.17,161.45,865.48,131.68,865.48,131.68Z" />
        <path class="Jelly6" d="M569.36,37.92s34.51-18.16,45.06-18.25c37.37-.32,112.12,65.2,149.5,64.88,10.14-.09,75.82,0,75.82,0" />
        <path class="Jelly6" d="M569.36,262.58s34.51,18.16,45.06,18.25c37.37.32,112.12-65.2,149.5-64.88,10.14.09,75.82,0,75.82,0" />
        <path class="Jelly6" d="M578,83.66s34.51-10.76,45.06-10.82c37.37-.19,112.12,38.65,149.5,38.46,10.14-.05,75.82,0,75.82,0" />
        <path class="Jelly6" d="M578.71,216.84s34.51,10.76,45.06,10.82c37.37.19,112.12-38.65,149.5-38.46,10.14.05,75.82,0,75.82,0" />
        <path class="Jelly6" d="M561.77,126.4s34.51-3.56,45.06-3.58c37.37-.06,112.12,12.8,149.5,12.74,10.14,0,75.82,0,75.82,0" />
        <path class="Jelly6" d="M561.37,172.31s34.51,3.56,45.06,3.58c37.37.06,112.12-12.8,149.5-12.74,10.14,0,75.82,0,75.82,0" />
        <path class="Jelly7" d="M464.42,138.17s36.28-31.24,36.28,9.16c0,51.18-36.28,12.51-36.28,12.51" />
        <path class="Jelly7" d="M460.62,176.66s33.22,27.21,27,40.08c-7.83,16.31-30.35-33.18-30.35-33.18" />
        <path class="Jelly7" d="M460.62,123.83s33.22-27.21,27-40.08c-7.83-16.31-30.35,33.18-30.35,33.18" />
        <path class="Jelly8" d="M566.32,34.8c4.14,7.38-17.59,12.92,1.34,33.81,7.09,7.83,14.88,19.26,13.51,26.59-2.86,15.35-29.48,35.12-29.48,55,0,20.35,25.06,40.69,28,56.07,1.35,6.94-5.22,18-12.07,25.56-18.93,20.89,2.8,26.43-1.34,33.81C545.4,303,440,214,440,150.25S545.4-2.51,566.32,34.8Z" />
    </g>
    <g id="J2">
        <path class="Jelly2" d="M295.26,217.71c-19.76,0-42.28-16-42.28-35.77s28.18-32.42,28.18-32.42S253,136.86,253,117.1s22.52-35.77,42.28-35.77,83.47,68.19,83.47,68.19S315,217.71,295.26,217.71Z" />
        <path class="Jelly9" d="M665.47,116.34l-38.46,28s-61.35,1.19-77,2.18c-12.73.81-14.87,13.07-27.61,13.7-13.78.68-81.15-27.61-94.92-26.71-11.26.73,9.67,30.86-1.61,31.18-11,.31-34.41-8.38-45.29-7.11-6.65.77-24.73,10.34-24.73,10.34L354,127.3s51.06,17.94,60.76,17.54c11.74-.49,12.85-20.78,24.89-21.5,13.2-.79,54.29,25.12,67.21,24.49,11.73-.57,19.32-28,31.33-29.05,17-1.49,66.26,14.57,83.07,13.41C628,131.72,665.47,116.34,665.47,116.34Z" />
        <path class="Jelly10" d="M693.36,175.66l-42.91-27.53s-67.58-.43-84.83-1.23c-14-.65-16.63-12.88-30.67-13.36-15.19-.51-78.47,17.28-93.65,16.55-12.42-.59-.3-19.65-12.73-19.83-12.06-.17-37.72,8.8-49.73,7.67-7.33-.69-27.44-10-27.44-10l-1.25,40.65S406,150,416.69,150.25c12.94.34,14.57,20.62,27.84,21.19,14.55.63,59.27-25.79,73.52-25.32,12.93.42,21.84,27.76,35.09,28.67,18.76,1.28,72.66-15.39,91.2-14.43C651.85,160.74,693.36,175.66,693.36,175.66Z" />
        <path class="Jelly11" d="M698.33,130.94l-63.7-2.63s-45.06,11-62.34,10.8c-14-.15-29.64-33-43.69-33-15.2,0-44.52,28.19-59.72,28-12.43-.16-21.71-7.06-34.14-6.8-12.06.25-37.38,10.12-49.43,9.42-7.35-.43-27.77-9.07-27.77-9.07l.18,40.67s55.17-20.53,65.86-20.62c12.94-.11,15.28,20.09,28.57,20.2,14.56.12,58.33-27.86,72.58-27.9,12.94,0,22.8,27,36.07,27.41,18.79.62,73-7.13,91.52-6.83C659.85,160.72,698.33,130.94,698.33,130.94Z" />
        <path class="Jelly6" d="M408.93,78.2s52.54-11,68.61-11.06c56.91-.19,170.72,39.52,227.63,39.33,15.45-.05,115.44,0,115.44,0" />
        <path class="Jelly6" d="M408.93,214.39s52.54,11,68.61,11.06c56.91.19,170.72-39.52,227.63-39.33,15.45.05,115.44,0,115.44,0" />
        <path class="Jelly6" d="M412.18,105.93s52.54-6.52,68.61-6.56c56.91-.12,170.72,23.43,227.63,23.31,15.45,0,115.44,0,115.44,0" />
        <path class="Jelly6" d="M413.27,186.66s52.54,6.52,68.61,6.56c56.91.12,170.72-23.43,227.63-23.31,15.45,0,115.44,0,115.44,0" />
        <path class="Jelly6" d="M408.93,131.84s52.54-2.16,68.61-2.17c56.91,0,170.72,7.76,227.63,7.72,15.45,0,115.44,0,115.44,0" />
        <path class="Jelly6" d="M413.27,159.66s52.54,2.16,68.61,2.17c56.91,0,170.72-7.76,227.63-7.72,15.45,0,115.44,0,115.44,0" />
        <path id="body" class="Jelly12" d="M422.58,149.52c0,9.57-29.16,18.83-19.42,27.64,12.14,11,24.25,21.22,17.45,30.43-5.18,7-11.26,3.67-18.11,9.35-20.54,17-47.89,37.18-77.93,37.18-63.76,0-115.45-46.83-115.45-104.61S260.82,44.91,324.58,44.91c23.11,0,44.63,17,62.68,27.58,9.79,5.75,18.56,2,26,10,9.54,10.36-1.46,22.41-12.65,35.59C392.19,128,422.58,138.58,422.58,149.52Z" />
        <path class="Jelly7" d="M235.44,135.77s68.12-35.55,68.12,10.42c0,58.24-68.12,14.24-68.12,14.24" />
        <path class="Jelly7" d="M228.3,179.58s62.37,31,50.77,45.61c-14.7,18.56-57-37.75-57-37.75" />
        <path class="Jelly7" d="M228.3,119.46s62.37-31,50.77-45.61c-14.7-18.56-57,37.75-57,37.75" />
    </g>
    <g id="J3">
        <path class="Jelly2" d="M121.56,217.35c-16.59,0-35.5-16-35.5-35.77s23.67-32.42,23.67-32.42-23.67-12.66-23.67-32.42S105,81,121.56,81s70.1,68.19,70.1,68.19S138.15,217.35,121.56,217.35Z" />
        <path class="Jelly13" d="M432.46,116l-32.3,28s-51.53,1.19-64.67,2.18c-10.69.81-12.49,13.07-23.19,13.7-11.57.68-68.15-27.61-79.72-26.71-9.46.73,8.13,30.86-1.35,31.18-9.2.31-28.9-8.38-38-7.11-5.58.77-20.77,10.34-20.77,10.34l-1.58-40.63s42.88,17.94,51,17.54c9.86-.49,10.79-20.78,20.91-21.5,11.09-.79,45.59,25.12,56.45,24.49,9.85-.57,16.22-28,26.31-29.05,14.28-1.49,55.65,14.57,69.77,13.41C401,131.37,432.46,116,432.46,116Z" />
        <path class="Jelly14" d="M455.89,175.3l-36-27.53s-56.76-.43-71.25-1.23c-11.79-.65-14-12.88-25.76-13.36-12.76-.51-65.9,17.28-78.65,16.55-10.43-.59-.25-19.65-10.69-19.83-10.13-.17-31.68,8.8-41.76,7.67-6.16-.69-23-10-23-10l-1.05,40.65s46.91-18.57,55.89-18.29c10.87.34,12.23,20.62,23.38,21.19,12.22.63,49.78-25.79,61.74-25.32,10.86.42,18.34,27.76,29.47,28.67,15.75,1.28,61-15.39,76.59-14.43C421,160.39,455.89,175.3,455.89,175.3Z" />
        <path class="Jelly15" d="M460.07,130.59,406.57,128s-37.85,11-52.35,10.8c-11.8-.15-24.9-33-36.7-33-12.76,0-37.39,28.19-50.15,28-10.44-.16-18.24-7.06-28.68-6.8-10.13.25-31.4,10.12-41.51,9.42-6.18-.43-23.32-9.07-23.32-9.07L174,168s46.34-20.53,55.32-20.62c10.87-.11,12.83,20.09,24,20.2,12.23.12,49-27.86,61-27.9,10.87,0,19.15,27,30.3,27.41,15.78.62,61.27-7.13,76.86-6.83C427.75,160.37,460.07,130.59,460.07,130.59Z" />
        <path class="Jelly6" d="M163.94,36.83S198.45,18.68,209,18.58c37.37-.32,112.12,65.2,149.5,64.88,10.14-.09,75.82,0,75.82,0" />
        <path class="Jelly6" d="M163.94,261.5s34.51,18.16,45.06,18.25c37.37.32,112.12-65.2,149.5-64.88,10.14.09,75.82,0,75.82,0" />
        <path class="Jelly6" d="M172.58,82.57s34.51-10.76,45.06-10.82c37.37-.19,112.12,38.65,149.5,38.46,10.14-.05,75.82,0,75.82,0" />
        <path class="Jelly6" d="M173.3,215.76s34.51,10.76,45.06,10.82c37.37.19,112.12-38.65,149.5-38.46,10.14.05,75.82,0,75.82,0" />
        <path class="Jelly6" d="M156.36,125.32s34.51-3.56,45.06-3.58c37.37-.06,112.12,12.8,149.5,12.74,10.14,0,75.82,0,75.82,0" />
        <path class="Jelly6" d="M156,171.22s34.51,3.56,45.06,3.58c37.37.06,112.12-12.8,149.5-12.74,10.14,0,75.82,0,75.82,0" />
        <path class="Jelly7" d="M59,137.09s36.28-31.24,36.28,9.16c0,51.18-36.28,12.51-36.28,12.51" />
        <path class="Jelly7" d="M55.2,175.58s33.22,27.21,27,40.08C74.41,232,51.88,182.49,51.88,182.49" />
        <path class="Jelly7" d="M55.2,122.75s33.22-27.21,27-40.08c-7.83-16.31-30.35,33.18-30.35,33.18" />
        <path class="Jelly16" d="M160.9,33.72c4.14,7.38-17.59,12.92,1.34,33.81,7.09,7.83,14.88,19.26,13.51,26.59-2.86,15.35-29.48,35.12-29.48,55,0,20.35,25.06,40.69,28,56.07,1.35,6.94-5.22,18-12.07,25.56-18.93,20.89,2.8,26.43-1.34,33.81C140,301.92,34.61,212.92,34.61,149.17S140-3.59,160.9,33.72Z" />
    </g>
</svg>