<?xml version="1.0" encoding="utf-8"?>
<!-- Generator: Adobe Illustrator 21.0.0, SVG Export Plug-In . SVG Version: 6.00 Build 0)  -->
<svg version="1.1" id="Layer_1" xmlns="http://www.w3.org/2000/svg" xmlns:xlink="http://www.w3.org/1999/xlink" x="0px" y="0px"
	 viewBox="0 0 138 75" style="enable-background:new 0 0 138 75;" xml:space="preserve">
<style type="text/css">
	.st0{fill:#FFFFFF;}
	.st1{font-family:'AmericanTypewriter';}
	.st2{font-size:15.764px;}
	.st3{enable-background:new    ;}
</style>
<rect x="7.3" y="54.4" width="122.6" height="12.6"/>
<text transform="matrix(1 0 0 1 32.3687 66.1255)" class="st0 st1 st2">Ende</text>
<text transform="matrix(1 0 0 1 70.8018 66.1255)" class="st0 st1 st2">a</text>
<text transform="matrix(1 0 0 1 79.1255 66.1255)" class="st0 st1 st2">v</text>
<text transform="matrix(1 0 0 1 88.4263 66.1255)" class="st0 st1 st2">or</text>
<g class="st3">
	<path d="M23.8,29l0.1-0.5h1.9c0.9-1.3,1.7-2.7,2.7-4.1c0.9-1.4,1.9-2.7,3-3.9c1.1-1.2,2.3-2.3,3.6-3.2s2.8-1.6,4.4-2v-0.1
		c-0.8,0-1.6,0-2.4,0c-0.8,0-1.7,0-2.6-0.1c-0.9,0-2-0.1-3.1-0.1c-1.1,0-2.4,0-3.9,0c-2.9,0-5.6,0.3-8,0.8C17,16.3,15,17,13.3,18
		c-1.7,0.9-3,2-4,3.2c-1,1.2-1.5,2.6-1.5,4.1c-0.1,1.4,0.5,2.6,1.5,3.4c1.1,0.8,2.6,1.3,4.4,1.3c1.2,0,2.5-0.2,3.7-0.6
		c1.3-0.4,2.4-1,3.5-1.7c1-0.7,1.9-1.6,2.6-2.6c0.7-1,1-2.1,1-3.3c0-0.5,0-1-0.1-1.4c-0.1-0.4-0.2-0.8-0.3-1.1l0.4-0.1
		c0.3,0.8,0.5,1.7,0.5,2.6c0,1.1-0.3,2.1-0.9,3.2c-0.6,1-1.5,2-2.5,2.8c-1,0.8-2.3,1.5-3.6,2c-1.4,0.5-2.8,0.8-4.3,0.8
		c-2,0-3.6-0.4-4.7-1.3c-1.2-0.9-1.7-2.1-1.7-3.7c0-1.6,0.6-3.2,1.7-4.7c1.1-1.5,2.7-2.8,4.8-4s4.7-2.1,7.8-2.8
		c3.1-0.7,6.6-1,10.5-1c2.6,0,4.9,0,6.8,0.1c1.9,0.1,3.4,0.1,4.3,0.1c0.7,0,1.3,0,1.9-0.1c0.5-0.1,1-0.1,1.5-0.1
		c0.6,0,1.1,0,1.5,0.1c0.4,0.1,0.6,0.3,0.6,0.8c0,0.4-0.1,0.7-0.2,0.9c-0.1,0.2-0.5,0.4-1.1,0.4c-0.6,0.1-1.4,0.1-2.6,0.2
		c-1.1,0-2.7,0-4.6,0c-1.7,0.6-3.2,1.4-4.3,2.5c-1.2,1-2.2,2.1-3,3.3c-0.8,1.2-1.6,2.4-2.3,3.7c-0.7,1.3-1.4,2.4-2.2,3.5
		c0.4-0.1,0.8-0.1,1.4-0.1c0.5,0,1.1-0.1,1.6-0.1c0.5-0.1,1-0.1,1.5-0.2c0.4-0.1,0.7-0.2,0.8-0.4c0.3-0.4,0.6-0.7,1-1.1
		c0.4-0.4,0.9-0.5,1.5-0.5c0.4,0,0.8,0.1,1.1,0.2c-1.2,1-2.4,2.2-3.4,3.4s-2,2.5-2.9,3.9l-0.3-0.1c0.3-0.8,0.7-1.6,1.1-2.4
		c0.4-0.8,0.8-1.5,1.2-2.3c-0.4,0.1-0.8,0.1-1.3,0.2c-0.5,0-0.9,0.1-1.4,0.1c-0.4,0-0.9,0.1-1.2,0.1c-0.4,0-0.7,0.1-0.9,0.1
		c-1.1,1.8-2.2,3.6-3.5,5.3c-1.2,1.8-2.6,3.3-4.1,4.7c-1.5,1.4-3.2,2.6-5.1,3.4c-1.9,0.9-4,1.3-6.3,1.3c-0.8,0-1.7-0.1-2.6-0.3
		c-0.9-0.2-1.7-0.5-2.5-1c-0.8-0.4-1.4-1-1.9-1.7c-0.5-0.7-0.8-1.5-0.8-2.5c0-0.6,0.2-1.1,0.5-1.6c0.3-0.5,0.8-0.8,1.5-0.8
		c0.5,0,0.8,0.1,1.1,0.4c0.3,0.3,0.4,0.7,0.4,1.1c0,0.4-0.1,0.8-0.3,1.1C4.4,38.9,4.1,39,3.7,39c-0.2,0-0.3,0-0.4,0
		c0,0.1,0,0.4,0.1,0.8c0.1,0.5,0.3,0.9,0.7,1.4c0.4,0.5,1,1,1.9,1.4c0.8,0.4,2,0.6,3.5,0.6c1.9,0,3.7-0.5,5.3-1.4
		c1.6-1,3.1-2.2,4.4-3.6c1.3-1.4,2.5-3,3.5-4.6c1.1-1.7,2-3.2,2.9-4.5H23.8z"/>
	<path d="M58.7,32.1c-0.7,0.8-1.5,1.4-2.4,1.9c-0.9,0.5-1.8,0.7-2.6,0.7c-0.8,0-1.5-0.2-2.1-0.6c-0.6-0.4-1.1-0.8-1.4-1.3h-0.1
		c-0.3,1.1-0.8,2.3-1.6,3.6c-0.8,1.3-1.8,2.5-2.9,3.5c-1.1,1.1-2.3,2-3.7,2.7c-1.3,0.7-2.7,1.1-4.1,1.1c-1.3,0-2.2-0.4-2.9-1.1
		c-0.7-0.7-1-1.7-1-3c0-0.7,0.2-1.4,0.5-2.3c0.3-0.9,0.8-1.7,1.4-2.6c0.6-0.9,1.3-1.7,2.1-2.6c0.8-0.8,1.6-1.6,2.6-2.3
		c0.9-0.7,1.9-1.2,2.9-1.6c1-0.4,2.1-0.6,3.1-0.6c1.2,0,2.2,0.4,2.8,1.1c0.7,0.7,1,1.6,1.1,2.8c0.1,0.7,0.4,1.3,1,1.9
		c0.6,0.6,1.4,0.9,2.4,0.9c0.9,0,1.7-0.2,2.5-0.7c0.8-0.4,1.5-1,2.2-1.7L58.7,32.1z M36.3,40.7c0,0.8,0.1,1.4,0.4,1.8
		c0.3,0.4,0.7,0.7,1.3,0.7c0.8,0,1.6-0.2,2.4-0.6c0.8-0.4,1.5-1,2.3-1.7c0.7-0.7,1.4-1.5,2-2.4c0.6-0.9,1.2-1.8,1.6-2.8
		c0.5-1,0.8-1.9,1.1-2.8c0.3-0.9,0.4-1.7,0.4-2.5c0-0.6-0.2-1.2-0.5-1.6s-0.8-0.6-1.4-0.6c-0.6,0-1.3,0.2-2,0.6
		c-0.7,0.4-1.4,0.9-2.2,1.6c-0.7,0.7-1.4,1.4-2.1,2.3c-0.7,0.9-1.2,1.8-1.8,2.7c-0.5,0.9-0.9,1.8-1.2,2.8
		C36.4,39.1,36.3,39.9,36.3,40.7z"/>
	<path d="M78.5,32.1c-0.7,0.8-1.5,1.4-2.4,1.9c-0.9,0.5-1.8,0.7-2.6,0.7c-0.8,0-1.5-0.2-2.1-0.6c-0.6-0.4-1.1-0.8-1.4-1.3h-0.1
		c-0.3,1.1-0.8,2.3-1.6,3.6c-0.8,1.3-1.8,2.5-2.9,3.5c-1.1,1.1-2.3,2-3.7,2.7c-1.3,0.7-2.7,1.1-4.1,1.1c-1.3,0-2.2-0.4-2.9-1.1
		c-0.7-0.7-1-1.7-1-3c0-0.7,0.2-1.4,0.5-2.3c0.3-0.9,0.8-1.7,1.4-2.6c0.6-0.9,1.3-1.7,2.1-2.6c0.8-0.8,1.6-1.6,2.6-2.3
		c0.9-0.7,1.9-1.2,2.9-1.6c1-0.4,2.1-0.6,3.1-0.6c1.2,0,2.2,0.4,2.8,1.1c0.7,0.7,1,1.6,1.1,2.8c0.1,0.7,0.4,1.3,1,1.9
		c0.6,0.6,1.4,0.9,2.4,0.9c0.9,0,1.7-0.2,2.5-0.7c0.8-0.4,1.5-1,2.2-1.7L78.5,32.1z M56.1,40.7c0,0.8,0.1,1.4,0.4,1.8
		c0.3,0.4,0.7,0.7,1.3,0.7c0.8,0,1.6-0.2,2.4-0.6c0.8-0.4,1.5-1,2.3-1.7c0.7-0.7,1.4-1.5,2-2.4c0.6-0.9,1.2-1.8,1.6-2.8
		c0.5-1,0.8-1.9,1.1-2.8c0.3-0.9,0.4-1.7,0.4-2.5c0-0.6-0.2-1.2-0.5-1.6s-0.8-0.6-1.4-0.6c-0.6,0-1.3,0.2-2,0.6
		c-0.7,0.4-1.4,0.9-2.2,1.6c-0.7,0.7-1.4,1.4-2.1,2.3c-0.7,0.9-1.2,1.8-1.8,2.7c-0.5,0.9-0.9,1.8-1.2,2.8
		C56.2,39.1,56.1,39.9,56.1,40.7z"/>
	<path d="M93.2,12.4c-2.6,4-4.9,7.5-6.9,10.4c-2,2.9-3.6,5.4-5,7.5c-1.4,2.1-2.5,3.8-3.4,5.1c-0.9,1.4-1.6,2.5-2.1,3.3
		c-0.5,0.9-0.9,1.5-1,2.1c-0.2,0.5-0.3,0.9-0.3,1.3c0,0.7,0.3,1.1,1,1.1c0.7,0,1.6-0.3,2.6-0.9c1-0.6,2.1-1.4,3.2-2.5
		s2.3-2.3,3.5-3.7c1.2-1.4,2.3-2.9,3.5-4.5l0.5,0.2c-1.1,1.5-2.2,3-3.4,4.4c-1.2,1.4-2.3,2.6-3.4,3.7c-1.5,1.4-2.7,2.4-3.8,3
		s-2,0.9-2.9,0.9c-0.9,0-1.6-0.2-2-0.6c-0.4-0.4-0.6-1-0.6-1.6c0-0.6,0.1-1.3,0.3-1.9c0.2-0.7,0.6-1.5,1.1-2.4
		c0.5-0.9,1.2-2.1,2.1-3.4s2-3,3.3-4.9c1.3-1.9,2.8-4.3,4.6-7c1.8-2.7,3.8-5.8,6.1-9.5H93.2z"/>
	<path d="M93.2,28.1c-1.6,2.3-3,4.3-4.1,5.9c-1.1,1.6-2,2.9-2.7,4c-0.7,1.1-1.2,1.9-1.5,2.5s-0.5,1.1-0.5,1.5c0,0.8,0.3,1.2,0.9,1.2
		c0.6,0,1.3-0.2,2.1-0.6c0.8-0.4,1.6-1,2.5-1.7c0.9-0.7,1.7-1.5,2.6-2.3c0.9-0.9,1.7-1.7,2.4-2.6c0.8-0.8,1.4-1.7,2-2.5
		c0.6-0.8,1-1.4,1.3-1.9l0.4,0.2c-0.4,0.6-0.8,1.3-1.4,2.1c-0.6,0.8-1.3,1.7-2.1,2.6c-0.8,0.9-1.6,1.7-2.5,2.6
		c-0.9,0.9-1.7,1.6-2.6,2.3s-1.8,1.2-2.6,1.6c-0.8,0.4-1.6,0.6-2.3,0.6c-0.8,0-1.4-0.2-1.8-0.7s-0.6-0.9-0.6-1.5
		c0-0.6,0.1-1.3,0.4-2c0.3-0.7,0.7-1.6,1.4-2.6c0.6-1,1.4-2.2,2.4-3.7c1-1.4,2.2-3.2,3.6-5.3H93.2z M95.7,19.8c0.4,0,0.8,0.1,1,0.4
		c0.3,0.3,0.4,0.6,0.4,1c0,0.4-0.1,0.8-0.4,1c-0.3,0.3-0.6,0.4-1,0.4c-0.4,0-0.8-0.1-1-0.4c-0.3-0.3-0.4-0.6-0.4-1
		c0-0.4,0.1-0.8,0.4-1C95,19.9,95.3,19.8,95.7,19.8z"/>
	<path d="M113.2,31.9c-0.9,1.4-1.9,2.8-3.1,4.3c-1.2,1.4-2.5,2.7-3.9,3.8c-1.4,1.1-2.9,2-4.6,2.7c-1.6,0.7-3.4,1-5.3,1
		c-0.7,0-1.4-0.1-2-0.3c-0.6-0.2-1.2-0.4-1.6-0.8c-0.5-0.4-0.8-0.8-1.1-1.4c-0.3-0.5-0.4-1.2-0.4-1.9c0-0.8,0.3-1.5,0.8-2.1
		c0.5-0.6,1.2-0.9,2.1-0.9c0.4,0,0.8,0.1,1.1,0.3c0.3,0.2,0.4,0.6,0.4,1c0,0.4-0.1,0.8-0.3,1.1c-0.2,0.3-0.5,0.4-0.9,0.4
		c-0.3,0-0.6-0.1-0.8-0.3c-0.2-0.2-0.3-0.4-0.4-0.7c-0.3,0.2-0.5,0.4-0.7,0.8c-0.1,0.3-0.2,0.7-0.2,1c0,1,0.4,1.8,1.2,2.3
		c0.8,0.5,1.7,0.8,2.7,0.8c0.6,0,1.2-0.1,1.6-0.4c0.5-0.3,0.8-0.6,1.2-1c0.3-0.4,0.5-0.9,0.7-1.4c0.1-0.5,0.2-1.1,0.2-1.6
		c0-0.6-0.1-1.2-0.3-1.8c-0.2-0.6-0.4-1.2-0.6-1.8c-0.2-0.6-0.5-1.2-0.7-1.8c-0.2-0.6-0.3-1.1-0.3-1.6c0-0.7,0.1-1.2,0.4-1.8
		c0.3-0.5,0.6-1,1.1-1.3c0.5-0.4,1-0.6,1.6-0.8c0.6-0.2,1.2-0.3,1.9-0.3c1.2,0,2.2,0.3,2.9,0.8c0.7,0.5,1.1,1.2,1.1,2.1
		c0,0.8-0.3,1.3-0.9,1.7c-0.6,0.4-1.2,0.5-1.9,0.5c0.2-0.3,0.3-0.7,0.5-1.2c0.1-0.5,0.2-0.9,0.2-1.3c0-0.6-0.2-1.1-0.6-1.5
		c-0.4-0.4-0.9-0.6-1.6-0.6c-0.9,0-1.5,0.3-1.9,0.8c-0.4,0.5-0.6,1.2-0.6,1.9c0,0.7,0.1,1.3,0.3,1.9c0.2,0.6,0.5,1.2,0.8,1.8
		c0.3,0.6,0.5,1.2,0.7,1.8c0.2,0.6,0.3,1.3,0.3,2.1c0,0.6-0.1,1.1-0.4,1.6c-0.3,0.5-0.6,1-1,1.4c-0.4,0.4-0.9,0.8-1.4,1.1
		c-0.5,0.3-1,0.5-1.6,0.6l0.1,0.1c1.6-0.2,3.1-0.6,4.6-1.4c1.5-0.8,2.8-1.7,4.1-2.8c1.3-1.1,2.4-2.3,3.5-3.6c1.1-1.3,2-2.6,2.8-3.8
		L113.2,31.9z"/>
	<path d="M127.8,12.6L112,36l0.1,0.1c0.6-0.7,1.3-1.6,2.1-2.6c0.8-1,1.7-1.9,2.6-2.7c0.9-0.9,1.9-1.6,3-2.2c1-0.6,2.1-0.9,3.1-0.9
		c1.8,0,2.7,0.9,2.7,2.7c0,0.5-0.2,1-0.5,1.7c-0.3,0.7-0.8,1.3-1.3,2.1c-0.5,0.7-1.1,1.5-1.7,2.2c-0.6,0.7-1.2,1.5-1.7,2.2
		c-0.5,0.7-1,1.4-1.3,2c-0.3,0.6-0.5,1.1-0.5,1.5c0,0.3,0.1,0.6,0.3,0.8c0.2,0.2,0.5,0.3,0.8,0.3c0.7,0,1.4-0.2,2.3-0.6
		c0.8-0.4,1.7-1,2.5-1.7c0.9-0.7,1.7-1.5,2.6-2.3c0.9-0.9,1.7-1.7,2.4-2.6c0.7-0.8,1.4-1.6,2-2.4c0.6-0.8,1-1.4,1.3-1.9l0.3,0.1
		c-0.3,0.6-0.8,1.2-1.4,2.1c-0.6,0.8-1.3,1.6-2,2.5s-1.6,1.8-2.5,2.7c-0.9,0.9-1.8,1.7-2.6,2.4c-0.9,0.7-1.7,1.3-2.6,1.7
		c-0.9,0.4-1.7,0.6-2.4,0.6c-0.8,0-1.4-0.2-1.9-0.7c-0.5-0.5-0.7-1.1-0.7-2c0-0.6,0.2-1.2,0.5-2c0.3-0.7,0.8-1.4,1.3-2.2
		c0.5-0.7,1.1-1.5,1.7-2.2c0.6-0.7,1.2-1.4,1.7-2.1c0.5-0.7,1-1.3,1.3-1.8c0.3-0.5,0.5-1,0.5-1.4c0-0.5-0.1-0.8-0.4-1
		c-0.3-0.2-0.6-0.3-1-0.3c-0.7,0-1.6,0.3-2.5,0.8c-0.9,0.6-1.8,1.3-2.8,2.2c-1,0.9-1.9,1.9-2.9,3c-1,1.1-1.8,2.2-2.7,3.4
		c-0.8,1.1-1.6,2.2-2.2,3.2c-0.6,1-1.1,1.9-1.5,2.6H105c1.6-2.6,3.3-5.2,5-7.8c1.7-2.6,3.4-5.3,5.1-7.9c1.7-2.6,3.4-5.2,5-7.7
		c1.6-2.5,3.2-5,4.6-7.3L127.8,12.6z"/>
</g>
<path d="M47.6,45.7c-0.3,3.2,3,5.7,7.2,6.5c3.5,0.7,4.8,0.5,6.7,0.4c1.8,0,3.6-0.2,5.3-0.6c1.8-0.3,5-1.1,6.9-2
	c3.3-1.5,3.3-1.5,5.3-3.3c1.5-1.5,2.1-3.6,1.7-5.6c-0.1-0.4-1.5-1.6-1.5-1.6s1.2,1.3,1.2,2.1c0.1,2.8-1,3.9-1.5,4.4
	c-1.6,1.5-3.6,2.6-5.6,3.3c-2,0.7-2.9,0.9-4.6,1.1c-1.7,0.1-3.5,0-5.2-0.3c-0.7-0.1-3.5-0.6-4.8-1.9c-1.6-1.7-1.6-2.1-3.7-3.9
	C52.6,42.1,47.9,42.6,47.6,45.7z"/>
<path d="M50.7,46c-0.3,3.2-4,5-8.3,5c-3.6,0-4.8-0.4-6.7-0.8c-1.8-0.3-3.5-0.9-5.1-1.6c-1.7-0.7-4.7-2-6.4-3.2c-3-2.1-3-2.1-4.6-4.3
	c-1.2-1.7-1.4-3.9-0.7-5.9c0.2-0.4,1.8-1.3,1.8-1.3s-1.4,1-1.5,1.8c-0.6,2.7,0.2,4,0.6,4.6c1.3,1.7,3,3.2,5,4.2
	c1.9,1,2.6,1.4,4.3,1.9c1.7,0.4,3.4,0.6,5.1,0.6c0.7,0,3.6,0.1,5.1-1c1.9-1.4,2-1.8,4.4-3.2C46.3,41.5,51,42.8,50.7,46z"/>
</svg>
