<svg id="logowhite" data-name="logowhite" xmlns="http://www.w3.org/2000/svg" viewBox="0 0 612 168.67"><defs><style>.cls-1,.cls-2{fill:#fff;}.cls-2{font-size:120px;font-family:SnellRoundhand, Snell Roundhand;}</style></defs><title>FEWhite</title><path class="cls-1" d="M359,133.2a5.7,5.7,0,0,0-4.67,2.08,9.81,9.81,0,0,0-1.87,5.9v.55A10.34,10.34,0,0,0,354.1,148a5.49,5.49,0,0,0,4.69,2.27,5.81,5.81,0,0,0,4.86-2.27,10.06,10.06,0,0,0,1.76-6.3Q365.41,133.2,359,133.2Z"/><path class="cls-1" d="M289.27,133.2a6.4,6.4,0,0,0-4.33,1.72,5.05,5.05,0,0,0-2,3.84q0,.59.93.59h10.14q.89,0,.89-.59a5.28,5.28,0,0,0-1.7-3.9A5.53,5.53,0,0,0,289.27,133.2Z"/><path class="cls-1" d="M267.4,134.6a6,6,0,0,0-3.93-1.4,5.52,5.52,0,0,0-4.68,2.25,10,10,0,0,0-1.69,6.15,10.28,10.28,0,0,0,1.75,6.34,6.15,6.15,0,0,0,8.63,1,5.33,5.33,0,0,0,1.79-3.54,30.9,30.9,0,0,0,.17-3.61,22.65,22.65,0,0,0-.21-3.86A5.34,5.34,0,0,0,267.4,134.6Z"/><path class="cls-1" d="M129,120.83v34H459v-34Zm93.28,28q.06,1.17.06,1.76a1.74,1.74,0,0,1-2,2q-.47,0-1.49-.08-.51,0-1.87,0l-3.31-.08q-3.61-.08-6.24-.08-4,0-7.81.25a2,2,0,0,0-.38,0H199q-1.78,0-1.78-1.53a1.18,1.18,0,0,1,1.32-1.36q.21,0,1.15.08a3.38,3.38,0,0,0,.89.13q2.16,0,2.16-3.18v-17q0-3.14-2.16-3.14a3.47,3.47,0,0,0-.89.08,6.39,6.39,0,0,1-1.15.13,1.24,1.24,0,0,1-.93-.4,1.39,1.39,0,0,1-.38-1q0-1.48,1.78-1.49l.63,0q6.34.42,5.92.42H206l10.19-.3q.3,0,2.2-.13.68,0,1.23,0,2.2,0,2.2,2,0,.34-.12,2.17-.09,1.36-.09,2.5a20.24,20.24,0,0,0,.07,2.08,17.71,17.71,0,0,1,.14,1.83q0,1.61-1.51,1.61t-1.51-2.25v-2.21q0-3.56-1.49-4.2-1.1-.47-5.69-.47a26.12,26.12,0,0,0-3.56.13,2.33,2.33,0,0,0-1.82,2.55v4.24q0,1.7.75,2a4.07,4.07,0,0,0,1,.08h1.72q2.64,0,2.64-1.83a10.67,10.67,0,0,0-.11-1.32,11.08,11.08,0,0,1-.11-1.44q0-1.7,1.51-1.7t1.51,1.82q0,.34-.27,2.63a29.27,29.27,0,0,0-.23,3.44q0,.85.17,3c0,.23.1.72.21,1.49a11.67,11.67,0,0,1,.13,1.49,1.35,1.35,0,0,1-1.53,1.53q-1.49,0-1.49-1.78a12.34,12.34,0,0,1,.11-1.36,12.65,12.65,0,0,0,.11-1.36q0-1.83-2.42-1.83H208q-1.23,0-1.51.42a3.87,3.87,0,0,0-.28,1.83v2.63q0,.68,0,1.82,0,1.4,0,1.87,0,1.7.68,2.12a5,5,0,0,0,2.21.3H215a5.77,5.77,0,0,0,3.44-.74,3.4,3.4,0,0,0,.93-2.78q0-.64-.06-1.89t-.06-1.89q0-1.91,1.51-1.91t1.59,2q0,.76-.06,2.33t-.06,2.33Q222.21,147.63,222.28,148.8Zm29.22,3.29a1.86,1.86,0,0,1-1.23.42,18.16,18.16,0,0,1-2-.17,20.77,20.77,0,0,0-2.55-.17,16.09,16.09,0,0,0-1.82.08l-2.25.25q-1.7,0-1.7-1.49,0-1.32,1.47-1.32a4.15,4.15,0,0,1,.78.08,7.07,7.07,0,0,0,1,.17q1,0,1.13-2.33v-8a15,15,0,0,0-.21-3.1,4.1,4.1,0,0,0-1.65-2.5,5.4,5.4,0,0,0-3.17-1,5.26,5.26,0,0,0-4.86,2.42q-1,1.66-1,5.64v5.64a8.4,8.4,0,0,0,.25,2.55.93.93,0,0,0,.93.68,4.08,4.08,0,0,0,.93-.15,4.17,4.17,0,0,1,1-.15q1.32,0,1.32,1.42t-1.7,1.38q-.34,0-2.21-.25a15.47,15.47,0,0,0-2.08-.13,22,22,0,0,0-2.38.17q-1.87.21-2.12.21-1.78,0-1.78-1.44a1.21,1.21,0,0,1,1.38-1.36,4.55,4.55,0,0,1,.8.13A5.36,5.36,0,0,0,229,150q1.3,0,1.34-2.46V136.17a5.44,5.44,0,0,0-.37-2,1,1,0,0,0-1-.53,5.45,5.45,0,0,0-.89.11,5.34,5.34,0,0,1-.89.11q-1.56,0-1.56-1.36t1.91-1.4a1.84,1.84,0,0,1,.42,0l1.57.17a5.85,5.85,0,0,0,1.19-.11l1.15-.11q1.23,0,1.23,1.29v1.21a8.21,8.21,0,0,1,6.79-3.23,8.58,8.58,0,0,1,4.33,1.17,6.1,6.1,0,0,1,2.76,2.91,10.07,10.07,0,0,1,.59,3.78v8.06q0,1.83,0,2.16.21,1.44,1.15,1.44a6.09,6.09,0,0,0,1-.11,6,6,0,0,1,.87-.11,1.34,1.34,0,0,1,1,.38,1.24,1.24,0,0,1,.4.93A1.32,1.32,0,0,1,251.5,152.09Zm23.85.42a11.93,11.93,0,0,1-1.29-.11,11.88,11.88,0,0,0-1.29-.11l-1,.08a3.74,3.74,0,0,1-.89.13q-1.15,0-1.15-1.53V150a7.62,7.62,0,0,1-6.52,3,8.6,8.6,0,0,1-6.94-3.14,14.27,14.27,0,0,1,0-16.45,8.58,8.58,0,0,1,6.92-3.08,7,7,0,0,1,6.28,3.27v-4.29a14.11,14.11,0,0,0-.08-2.08q-.21-1.31-1.19-1.32a5.06,5.06,0,0,0-1,.13,5.06,5.06,0,0,1-1,.13q-1.57,0-1.57-1.36t2.12-1.4q.34,0,1.23.08l1.4.13a8.26,8.26,0,0,0,1.1-.11,8.28,8.28,0,0,1,1.1-.11q1.19,0,1.19,1.7v.47q0,.13-.08,2.25,0,.25-.13,3.27-.09,2.13-.08,3.23v11.26a16.81,16.81,0,0,0,.26,3.49,1,1,0,0,0,1,.68,3.38,3.38,0,0,0,.86-.08,9.36,9.36,0,0,1,1-.08q1.6,0,1.6,1.4T275.35,152.51Zm22.83-10.67q-.21.36-1.23.36h-13.5a1.18,1.18,0,0,0-.72.15.62.62,0,0,0-.17.49,7.64,7.64,0,0,0,1.91,5.31,6.33,6.33,0,0,0,8.17,1.1,4.66,4.66,0,0,0,2-2.59l.38-1.23a1.32,1.32,0,0,1,1.4-1A1.41,1.41,0,0,1,298,146a6.13,6.13,0,0,1-2.8,4.9,10.2,10.2,0,0,1-6.37,2.14,9,9,0,0,1-7.09-3,11.74,11.74,0,0,1-2.63-8,12.36,12.36,0,0,1,2.8-8.4,9.21,9.21,0,0,1,7.3-3.23,8.77,8.77,0,0,1,6.58,2.67,9.36,9.36,0,0,1,2.59,6.79A5.23,5.23,0,0,1,298.18,141.84Zm25.93,4.56v2.42q-.08,4.07-4.33,4.07-3.48,0-4.29-3-2.17,3.18-6.79,3.18a8.37,8.37,0,0,1-5.5-1.7,5.58,5.58,0,0,1-2.06-4.54,5.51,5.51,0,0,1,3-5.18,7.9,7.9,0,0,1,2-.83q.83-.19,3.33-.49a12.79,12.79,0,0,0,4.65-1.06,2.72,2.72,0,0,0,1.08-2.5A3.36,3.36,0,0,0,314,134a5.16,5.16,0,0,0-3.37-1,6.49,6.49,0,0,0-3.56,1.06q-.64.42-.64.89c0,.11.13.25.38.42a1.65,1.65,0,0,1,.59,1.44,1.8,1.8,0,0,1-.62,1.4,2.23,2.23,0,0,1-1.55.55,2.47,2.47,0,0,1-1.85-.76,2.57,2.57,0,0,1-.74-1.87A4.94,4.94,0,0,1,305,132.1a9.51,9.51,0,0,1,5.71-1.7q7.72,0,7.72,7.41v8.55a17.86,17.86,0,0,0,.08,2.41q.25,1.48,1.44,1.48,1.49,0,1.49-2.7V145.5q0-1.35,1.29-1.35t1.38,2ZM346.74,134a1.66,1.66,0,0,1-.68-.1,4.54,4.54,0,0,0-.89-.15q-.76,0-1.57,2l-6,15.31a2.66,2.66,0,0,1-2.59,2,2.62,2.62,0,0,1-2.5-2l-6.11-15.77q-.59-1.58-1.4-1.58a4.67,4.67,0,0,0-.89.13,4.68,4.68,0,0,1-.89.13q-1.4,0-1.4-1.32,0-1.53,2-1.53a2.33,2.33,0,0,1,.51,0l1.78.23a14.18,14.18,0,0,0,1.78.11,19.85,19.85,0,0,0,2.12-.16l1.4-.16a2.59,2.59,0,0,1,.59-.05q1.87,0,1.87,1.46T332.22,134a3.48,3.48,0,0,1-.72-.05,6,6,0,0,0-1-.2q-.68,0-.68.6a3.17,3.17,0,0,0,.17.85l.3.94,5,13.31L340,136.17a6.35,6.35,0,0,0,.43-1.53q0-.93-.89-.93a5.69,5.69,0,0,0-1,.13,5.73,5.73,0,0,1-1,.13,1.23,1.23,0,0,1-1.4-1.38q0-1.46,2-1.46h.34l.34,0,1.78.18a4.46,4.46,0,0,0,1.23.17,26.38,26.38,0,0,0,2.8-.24,16.43,16.43,0,0,1,1.7-.14q1.82,0,1.82,1.42T346.74,134Zm19.35,16a9.29,9.29,0,0,1-7.34,3.14,9,9,0,0,1-7.13-3.08,14,14,0,0,1,0-16.51,9.13,9.13,0,0,1,7.24-3.08,9.26,9.26,0,0,1,7.3,3,11.9,11.9,0,0,1,2.67,8.19A12.15,12.15,0,0,1,366.09,149.92Zm24.11-10.5a3,3,0,0,1-2.46,1.17,2.42,2.42,0,0,1-1.66-.59,1.85,1.85,0,0,1-.68-1.44,1.7,1.7,0,0,1,.51-1.21,1.6,1.6,0,0,1,1.19-.53,2.6,2.6,0,0,1,.55.13,2.11,2.11,0,0,0,.25-.93,2.56,2.56,0,0,0-1.08-2.08,4.24,4.24,0,0,0-2.7-.85,4.29,4.29,0,0,0-4.41,3,16.8,16.8,0,0,0-.68,5.52v2.8q0,2.84,0,3.18.21,2.42,1.32,2.42a4.83,4.83,0,0,0,1.15-.14,3.58,3.58,0,0,1,.81-.11A1.19,1.19,0,0,1,383.7,151q0,1.46-1.73,1.46h-.17a18.64,18.64,0,0,1-1.93-.15,18.61,18.61,0,0,0-1.92-.15q-1.69,0-2.67.08l-2.37.21q-1.73,0-1.73-1.49,0-1.32,1.63-1.32a3.68,3.68,0,0,1,.64,0l.64.13a3.53,3.53,0,0,0,.6.08q1.07,0,1.16-2v-2.16l-.13-9.63q-.13-2.5-1.27-2.5a4.74,4.74,0,0,0-.93.13,4.74,4.74,0,0,1-.93.13,1.22,1.22,0,0,1-1.4-1.36q0-1.49,1.83-1.49a11.35,11.35,0,0,1,1.27.11,11.12,11.12,0,0,0,1.27.11,9,9,0,0,0,1.1-.11,2.73,2.73,0,0,1,.81-.11q1.1,0,1.1,1.21v1.17a7.4,7.4,0,0,1,10.72-1.42,5.56,5.56,0,0,1,1.85,4.31A4.72,4.72,0,0,1,390.19,139.42Z"/><path class="cls-1" d="M309.41,143.22q-4.82.47-4.82,3.57a3.08,3.08,0,0,0,1.17,2.55,4.92,4.92,0,0,0,3.16.93,6.24,6.24,0,0,0,4.48-1.55,5.73,5.73,0,0,0,1.68-4.26v-3a5.42,5.42,0,0,1-2,1.19A19.59,19.59,0,0,1,309.41,143.22Z"/><text class="cls-2" transform="translate(105.66 91.18)">Foolish</text><path class="cls-1" d="M237.31,97.45c-.79,8.56,8.07,15.28,19.44,17.41,9.42,1.77,12.8,1.33,18.07,1.21a64.44,64.44,0,0,0,14.36-1.62c4.84-.94,13.36-2.94,18.52-5.33,8.9-4.1,9-4,14.2-9a17.07,17.07,0,0,0,4.63-15.21c-.21-1.08-4-4.27-4-4.27s3.13,3.45,3.19,5.54c.21,7.46-2.6,10.5-3.95,11.82a43.18,43.18,0,0,1-15.21,8.8c-5.42,1.76-7.7,2.53-12.26,2.93a50.39,50.39,0,0,1-13.88-.89c-1.86-.3-9.47-1.5-13-5.18-4.34-4.54-4.29-5.69-10-10.5C251,87.68,238.1,88.9,237.31,97.45Z"/><path class="cls-1" d="M245.65,98.22c-.79,8.56-10.72,13.55-22.29,13.58a66.47,66.47,0,0,1-18-2.1,64.44,64.44,0,0,1-13.83-4.21c-4.59-1.81-12.6-5.33-17.24-8.61-8-5.66-8.06-5.61-12.32-11.45a17.07,17.07,0,0,1-1.78-15.8c.41-1,4.72-3.47,4.72-3.47S161.2,69,160.76,71c-1.56,7.3.64,10.79,1.73,12.34a43.18,43.18,0,0,0,13.35,11.42c5,2.72,7.11,3.89,11.52,5.12a50.39,50.39,0,0,0,13.81,1.66c1.88,0,9.58.25,13.72-2.72,5.09-3.67,5.26-4.81,11.74-8.51C234,86.12,246.44,89.66,245.65,98.22Z"/></svg>