<svg id="Layer_1" data-name="Layer 1" xmlns="http://www.w3.org/2000/svg" xmlns:xlink="http://www.w3.org/1999/xlink" viewBox="0 0 900 300">
    <defs>
        <style>
            .cls-1 {
                opacity: 0.77;
                fill: url(#linear-gradient);
            }
            
            .cls-2 {
                fill: #fff;
            }
            
            .cls-3,
            .cls-5 {
                fill: #9aad95;
            }
            
            .cls-12,
            .cls-15,
            .cls-18,
            .cls-22,
            .cls-3,
            .cls-4 {
                opacity: 0.5;
            }
            
            .cls-13,
            .cls-4 {
                fill: #38622d;
            }
            
            .cls-19,
            .cls-21,
            .cls-5 {
                fill-opacity: 0.75;
            }
            
            .cls-5 {
                opacity: 0.75;
            }
            
            .cls-19,
            .cls-23,
            .cls-6 {
                fill: #fe481f;
            }
            
            .cls-10,
            .cls-11,
            .cls-25,
            .cls-6,
            .cls-7,
            .cls-8,
            .cls-9 {
                fill-opacity: 0.5;
            }
            
            .cls-21,
            .cls-7 {
                fill: #c40402;
            }
            
            .cls-8 {
                fill: #fc9142;
            }
            
            .cls-24,
            .cls-9 {
                fill: #420606;
            }
            
            .cls-10 {
                fill: #910303;
            }
            
            .cls-11,
            .cls-20 {
                fill: #ff6b2f;
            }
            
            .cls-12,
            .cls-25 {
                fill: #140201;
            }
            
            .cls-13 {
                opacity: 0.7;
            }
            
            .cls-14,
            .cls-17,
            .cls-18 {
                fill: #2f1828;
            }
            
            .cls-14 {
                opacity: 0.4;
            }
            
            .cls-15 {
                fill: #4e3c54;
            }
            
            .cls-16 {
                fill: #6b5363;
            }
            
            .cls-16,
            .cls-17 {
                opacity: 0.54;
            }
            
            .cls-20 {
                fill-opacity: 0.39;
            }
            
            .cls-24 {
                fill-opacity: 0.6;
            }
        </style>
        <linearGradient id="linear-gradient" y1="148.55" x2="902.67" y2="148.55" gradientUnits="userSpaceOnUse">
            <stop offset="0" stop-color="#b0fcf8" />
            <stop offset="1" stop-color="#275445" />
        </linearGradient>
    </defs>
    <title>poppyLayers</title>
    <rect class="cls-1" y="-2.91" width="902.67" height="302.91" />
    <g id="Closed_Poppy" data-name="Closed Poppy">
        <path class="cls-2" d="M845.39,215.29c23.35-28,25.65-67.15,5.14-87.38s-56.06-13.9-79.41,14.13S745.48,209.2,766,229.43,822,243.32,845.39,215.29Z" />
        <path class="cls-2" d="M766,229.43c20.51,20.23,56.06,13.9,79.41-14.13s12.34-60.37,2.24-73.43c0,0-27.42,19.28-41.25,33.62C785.18,197.48,766,229.43,766,229.43Z" />
        <path class="cls-2" d="M766,229.43c-20.51-20.23-18.21-59.34,5.14-87.38s51.23-28.54,71.74-8.31c0,0-33.89,23.32-44.87,36.6C787.41,183.14,766,229.43,766,229.43Z" />
        <path class="cls-2" d="M766,229.43c20.51,20.23,56.06,13.9,79.41-14.13s-28.64,11.53-44.92,12.35c-5,.25,17.48-39.63,13.41-39.43C800.81,188.89,766,229.43,766,229.43Z" />
        <path class="cls-2" d="M766,229.43c-20.51-20.23-18.21-59.34,5.14-87.38s-27.35,36-6.84,56.19L798,170.34Z" />
        <path class="cls-2" d="M754.55,233.38s5-18.43,16.73-23.91,23.28-3.65,25.78,4.08-5,18.43-16.73,23.91-14.91,4.95-14.91,4.95-34.87,37.45-47.5,48.62c-18.38,16.24-57.6,45-77.47,58.82-11.25,7.83-46.06,29.22-46.06,29.22l-4-16.28,43.95-29s54.74-40,72.1-54.74C719,268.33,754.55,233.38,754.55,233.38Z" />
        <path class="cls-3" d="M845.39,215.29c23.35-28,25.65-67.15,5.14-87.38s-56.06-13.9-79.41,14.13S745.48,209.2,766,229.43,822,243.32,845.39,215.29Z" />
        <path class="cls-4" d="M766,229.43c20.51,20.23,56.06,13.9,79.41-14.13s12.34-60.37,2.24-73.43c0,0-27.42,19.28-41.25,33.62C785.18,197.48,766,229.43,766,229.43Z" />
        <path class="cls-4" d="M766,229.43c-20.51-20.23-18.21-59.34,5.14-87.38s51.23-28.54,71.74-8.31c0,0-33.89,23.32-44.87,36.6C787.41,183.14,766,229.43,766,229.43Z" />
        <path class="cls-4" d="M766,229.43c20.51,20.23,56.06,13.9,79.41-14.13s-28.64,11.53-44.92,12.35c-5,.25,17.48-39.63,13.41-39.43C800.81,188.89,766,229.43,766,229.43Z" />
        <path class="cls-4" d="M766,229.43c-20.51-20.23-18.21-59.34,5.14-87.38s-27.35,36-6.84,56.19L798,170.34Z" />
        <path class="cls-5" d="M754.55,233.38s5-18.43,16.73-23.91,23.28-3.65,25.78,4.08-5,18.43-16.73,23.91-14.91,4.95-14.91,4.95-34.87,37.45-47.5,48.62c-18.38,16.24-57.6,45-77.47,58.82-11.25,7.83-46.06,29.22-46.06,29.22l-4-16.28,43.95-29s54.74-40,72.1-54.74C719,268.33,754.55,233.38,754.55,233.38Z" />
    </g>
    <g id="Underlayer_White" data-name="Underlayer White">
        <path class="cls-2" d="M720.14,24.81l-1.29-4.93-3.77-2.52-2.47-6.84L712,5.2l-2-6.72L706.73-.39,703-2.91,699.13-.55l-1.89,3.36-4.18.38L688.76,9.8l-9.45,1.86-1.69,3.68-9.91,6.1L663,28.76l-3.13,12.05,0,1.37-4.95-8-8.18-4.65-12.46-7.29-3.36-.48-.73-1.85-6,.89-1.54-.22-11.67-6-17.43-2.47-26.68-.3-17.76,1.26-12.2,3.11s-17.13,4.14-21.94,7.35c-3,2-6.5,6.92-9.76,11.18l-5.22,6-5.75,3.54L479.2,50c-4.31,1.6-13.85,3.23-17.31,6.26-1.65,1.44-3,5.81-4,7.76-.17.33-.35.72-.55,1.14l-3.71,7.65-5.94,8.94-2.14,2.47c-2.64,2.85-6.24,6.37-7.64,8.83a17.61,17.61,0,0,0-1.38,4.24l-2.58,7.89-2.52,1.55c-1.32.6-2.73,1.2-3.24,2-1.3,2-1.16,9.52-1.16,9.52l-6.84,28.86-.8,2.23-6.61-7.06-4,2.49-.75,1.64s-4.62,1.6-5,2.81,2.9,4.67,2.9,4.67l-2.17,4.57s-2.58.92-2.77,1.71,1.34,3.58,1.34,3.58-1.74,4.24-1,5.58a1.65,1.65,0,0,0,.38.43c1.31,1.21,4.21.85,5.58,2.06.62,1,.67,3,.54,4.86l-3.62,5.84-10.26,13.36-7,4.33L382.54,216l-5.15,10.22-.28,8.1-.81,17.22,3.06,7.8,4.31,14.08,6.71,10.83,15,5.72,4.34,7,22.69,1,30.27-1,33-.94,25.39-4.63,18.54-5.7,17.26-10.63,10.52-17.58,12.74-6.88,4.47-1.1,7-1.54,1.79-.22,1.08-.41,11.64-2.58s1.43-1.42,3.87-3.89l60.28,87.21,12.24-7.54L622,233.09l2-1.42,7.8-4.8L652.45,212l14.42-13.07,6.68-6.32,5.3-1.06-.31-3.39.72-.62,4.54,1,9.95-10.31L711,149.32l6-9.87.2-11.79-7.35-.1-4.28,2.64,1.09-2.44,12.82-29.91L714,88.93l3.61-19.83,4-13.48,4.15-17.53.36-7.26Z" />
    </g>
    <g id="Petal_6" data-name="Petal 6" >
        <path id="Petal_3" data-name="Petal 3" class="cls-6" d="M567.71,256.93l-10.84,18.13L539.6,285.68l-18.54,5.7L495.67,296l-33,.94-30.27,1-22.69-1-4.34-7-15-5.72-6.71-10.83-4.31-14.08-3.06-7.8.81-17.22.28-8.1L382.54,216l4.3-15.86,7-4.33,10.26-13.36,8-12.82s53.32,42.69,74.71,54.68C504.31,234.16,567.71,256.93,567.71,256.93Z" />
        <path id="Petal_3-2" data-name="Petal 3" class="cls-7" d="M567.71,256.93l-10.84,18.13L539.6,285.68l-18.54,5.7L495.67,296l-33,.94-30.27,1-22.69-1s20.3-6.6,27.35-7.16c4.94-.39,14.79,1.66,19.74,1.93,4.21.23,12.66.29,16.88.17,5.84-.17,17.54-.65,23.3-1.59,9.12-1.48,27.2-5.81,35.76-9.26,5.71-2.3,16.43-8.52,21.42-12.1C557.89,266.35,567.71,256.93,567.71,256.93Z" />
        <path id="Petal_3-3" data-name="Petal 3" class="cls-7" d="M446.83,282.74c-14.12-.13-56.45,1.53-56.45,1.53s22.93-11.84,30.73-9.79c1.57.41,2.83,4.4,4.42,4.76,4,.91,11.31-5.29,15.36-6.09,6-1.19,24.53-.32,24.53-.32l37.26-.2s-33.51-5.09-44.78-5.29c-18.62-.33-74.22,6.1-74.22,6.1l-4.31-14.08-3.06-7.8s69.42-9.56,92.44-6.86c14,1.65,53.87,17.11,53.87,17.11l28.45-3.73s-39.41,23.83-54.24,27C484.58,287.62,459.34,282.86,446.83,282.74Z" />
        <polygon id="Petal_3-4" data-name="Petal 3" class="cls-7" points="420.4 238.67 376.79 241.09 377.11 234.34 377.39 226.25 420.4 238.67" />
        <path id="Petal_3-5" data-name="Petal 3" class="cls-8" d="M404.13,182.48l-10.26,13.36-7,4.33a48,48,0,0,0,6,3.95c7,2.86,22.14,4.47,29.54,5.87,7,1.33,28,5.05,28,5.05s-16.68-10.27-22.55-13.11c-3.16-1.53-13.06-5.16-13.06-5.16s12.85,1.7,16.92,3.08a55.58,55.58,0,0,1,5.6,2.86Z" />
        <path id="Petal_3-6" data-name="Petal 3" class="cls-7" d="M386.2,200.57s5.6,2.48,7.26,3.16c7,2.86,20.86,5.25,28.26,6.66,7,1.33,28,5.05,28,5.05S433,205.18,427.17,202.33c-3.16-1.53-13.06-5.16-13.06-5.16s12.85,1.7,16.92,3.08c1.49.5,7.27,2.71,7.27,2.71l-34.81-20.08s14.49,4,19,6.11c3.85,1.78,10.95,6.49,14.39,9,5.58,4,15.89,13.13,21.21,17.49,4.66,3.81,13.22,12.64,18.67,15.17,2.77,1.29,12,2.29,12,2.29s-22,1.94-29.27.86c-11-1.65-32.1-9.59-42.19-14.29C409.08,215.62,386.2,200.57,386.2,200.57Z" />
        <path id="Petal_3-7" data-name="Petal 3" class="cls-9" d="M520.28,239c24.53-.33,47.43,17.89,47.43,17.89s-14.49,7.62-19.32,10.14c-3.34,1.74-9.61,6.62-13.36,6.94-7.28.63-22.35-4.05-27.85-8.85-3.56-3.11-8.09-17.06-8.09-17.06S514.51,239.12,520.28,239Z" />
    </g>
    <g id="Petal_5" data-name="Petal 5" >
        <polygon id="Petal_4" data-name="Petal 4" class="cls-7" points="659.85 40.81 662.98 28.76 667.72 21.44 677.62 15.34 679.32 11.66 688.76 9.8 693.06 3.19 697.24 2.82 699.13 -0.55 702.96 -2.91 706.73 -0.39 710 -1.52 711.96 5.2 712.61 10.52 715.08 17.36 718.85 19.88 720.14 24.81 726.08 30.84 725.72 38.1 721.57 55.62 717.56 69.1 713.95 88.93 719.48 97.85 706.66 127.76 680.11 186.81 653.36 209.89 621.06 233.31 612.09 182.49 619.45 129.53 644 95.04 659.16 66.77 659.85 40.81" />
        <path id="Petal_4-2" data-name="Petal 4" class="cls-9" d="M680.11,186.81l-26.76,23.08-32.29,23.41s16.85-45.57,24.21-60c4.18-8.18,16-22.63,19.58-31.11,3.26-7.83-.74-31.65,7.64-33,1.51-.25,1.71,5.47,3.22,5.19,2-.38-.4-7.22,1.47-8.08,1.45-.67,4.66,1.85,5.51,3.19,1.58,2.49.81,8.8.95,11.74.34,7.31.68,22,.34,29.29C683.55,159.64,680.11,186.81,680.11,186.81Z" />
        <path id="Petal_4-3" data-name="Petal 4" class="cls-10" d="M718.85,19.88l1.29,4.93,5.94,6-.36,7.26-10.1,10-32,73.12c-.14-2.94.63-9.25-.95-11.74-.85-1.34-4.06-3.86-5.51-3.19L700.3,65.64Z" />
        <path id="Petal_4-4" data-name="Petal 4" class="cls-7" d="M680.11,186.81s3.43-27.17,3.87-36.28c.35-7.31-2.76-21.89.06-28.65C692.21,102.24,689,109,698.93,86.3c2.16-4.94,13.91-16.49,13.91-16.49s-10.34,29.47-13,39.53c-2.24,8.62-4.66,26.33-6.81,35C690.39,155.08,680.11,186.81,680.11,186.81Z" />
        <path id="Petal_4-5" data-name="Petal 4" class="cls-8" d="M718.85,19.88l-3.77-2.52-2.47-6.84L712,5.2l-2-6.72L706.73-.39,703-2.91,699.13-.55l-1.89,3.36-4.18.38L688.76,9.8l-9.45,1.86-1.69,3.68-9.91,6.1S665.25,33.07,664.64,37c-.67,4.35-1.82,13.09-2,17.49-.16,5.28-.47,16,1.1,21.08.85,2.71,6,9.67,6,9.67s4-16.71,4.79-22.38-.4-17.76,1.39-23.32C678.7,31,695.84,9.66,695.84,9.66s-5.48,15.43-7.58,20.46c-1.48,3.53-5.81,10.1-6.48,13.87-.6,3.38,1.5,10.27,1.17,13.69-.59,6.1-6.71,23.57-6.71,23.57s7.82-11.78,9.48-16.16c2.06-5.43,2.35-17.38,4.46-22.79,2.71-6.94,15.62-25.41,15.62-25.41l4.32,4S701,34.1,698.7,38.87c-2.47,5-7.64,21.1-7.64,21.1s8.4-13.57,11.41-18C706.37,36.34,718.85,19.88,718.85,19.88Z" />
    </g>
    <g id="Petal_4" data-name="Petal 4" >
        <path id="Petal_3-8" data-name="Petal 3" class="cls-8" d="M567.71,256.93l11.58-6.25,26.79-5.93L671,164.25l10.92-62.19L671.74,82.8l-2.65-25.66L654.87,34.2l-8.18-4.65-12.46-7.29-11.62-1.65-11.67-6-17.43-2.47-26.68-.3-17.76,1.26-12.2,3.11s-17.13,4.14-21.94,7.35S504.3,37,500,40.7a37.06,37.06,0,0,1-5.75,3.54C490.6,46,483,48.56,479.2,50c-4.31,1.6-13.85,3.23-17.31,6.26-1.65,1.44-3,5.81-4,7.76-1.1,2.18-3.05,6.67-4.27,8.79-1.33,2.33-4.32,6.8-5.94,8.94-2.26,3-7.94,8.05-9.77,11.3-1.57,2.78-2,9.62-4,12.13-1,1.32-4.84,2.12-5.75,3.54-1.3,2-1.16,9.52-1.16,9.52l-6.84,28.86-8.08,22.59s54.93,43.59,76.86,55.89C505.92,235.06,567.71,256.93,567.71,256.93Z" />
        <path id="Petal_3-9" data-name="Petal 3" class="cls-6" d="M514.93,23.55,500,40.7l-5.75,3.54L479.2,50l-17.31,6.26-4,7.76-4.27,8.79-5.94,8.94L437.88,93l-4,12.13-5.75,3.54L427,118.21l-6.84,28.86s13.16,1.61,17.26,3.16c7,2.63,19.42,11.14,25.56,15.36,9.2,6.32,25,22.89,35.16,27.5,4.17,1.89,18,3.43,18,3.43S477.42,168,465.39,157.36c-6.19-5.45-19.2-16.21-23.3-23.36-1.71-3-3.5-13.25-3.5-13.25l37.5,19.19-33.24-25.63s7.61.09,10,.9c15.92,5.4,56.79,36,56.79,36S478.83,122,460.7,108.46c-2.24-1.68-9.67-11.8-9.67-11.8s11,.83,14.46,2c4.67,1.52,12.71,7.55,17.3,9.3,1.65.63,6.85,1.65,6.85,1.65s-13-11.84-16.19-16.73c-2.23-3.47-6-15.35-6-15.35s9,8.39,12.23,11,10.46,6.85,13.5,9.67c2.48,2.31,8.67,10.42,8.67,10.42s-7.52-13.24-10.66-17.2c-3-3.77-11.85-9.15-13.6-13.63-1-2.6.46-11.14.46-11.14s11.76,4.61,15,7.17c6.24,4.87,15.32,18.15,20.14,24.42,4.94,6.43,18.86,26.39,18.86,26.39l-19.22-31L498.47,70.37l-4.61-7.43s18.92,18.09,25.33,24c2.44,2.26,7.73,6.35,9.86,8.9,2.56,3.07,8.42,13.59,8.42,13.59S530.21,94.22,527,89.61c-2.94-4.25-11.18-11-13.71-15.47-1.93-3.43-4.62-15.06-4.62-15.06s14.77,10.21,19,14.44S541.46,92,541.46,92s-12.14-18.5-15.74-24.93c-2.3-4.11-8.3-16.9-8.3-16.9s6.36,6.1,8,4.48-4.1-5.57-4.52-7.78c-.48-2.48,1.46-10,1.46-10S534,46.73,536.85,50.84c5.37,7.63,9.37,26.79,15.22,34.06,3,3.68,11.57,8.23,15.21,11.25,2.93,2.43,11.15,10.38,11.15,10.38S569.37,94.43,566,90.72c-1.64-1.79-5.69-4.66-7.07-6.65-2.7-3.9-5.59-13.09-7.31-17.51-2-5.08-4.68-15.8-7.42-20.52-2.34-4-8.37-11.42-12.08-14.28S514.93,23.55,514.93,23.55Z" />
        <path id="Petal_3-10" data-name="Petal 3" class="cls-7" d="M571.12,71.11c-9.23-14-34.25-54.91-34.25-54.91S557.31,65.69,568.43,80c2.94,3.77,10,10.49,13.13,14.07,3.82,4.32,12,19.68,12,19.68S584.41,91,580.44,83.86C578.8,80.91,573,73.93,571.12,71.11Z" />
        <path id="Petal_3-11" data-name="Petal 3" class="cls-6" d="M634.23,22.26l-11.62-1.65-11.67-6-17.43-2.47-26.68-.3-17.76,1.26s.88,6.38,1.66,8.37c1.1,2.79,6.32,10.2,6.32,10.2s-3.22-7-3.22-9.46a15.78,15.78,0,0,1,1.28-3.72s4.14,4.69,5.26,6.44c1.38,2.17,4.48,9.27,4.48,9.27s-.18-8.72-.19-11.62c0-1.4.06-5.61.06-5.61s6.49,7.69,7.83,10.73c1.15,2.62,1.71,8.42,2.25,11.23.63,3.29,2.43,13.18,2.43,13.18s.92-13.54.73-18.06c-.13-3.15-1.58-12.53-1.58-12.53s5.94,6.2,7.63,8.51a69.42,69.42,0,0,1,5.58,9.48c.94,2.1,2.77,8.75,2.77,8.75s1.4-11.8.87-15.69c-.46-3.41-4.4-13-4.4-13s6,8.83,7.46,12a115.2,115.2,0,0,1,4,11.84C601,45.91,603,53.54,603,53.54s1.93-15.91,1.57-21.22A67.4,67.4,0,0,0,603,25.06s15.9,17.75,19.23,24.86c2.24,4.79,4.55,20.65,4.55,20.65s1.89-20.39.87-27.1c-.43-2.81-3.73-10.76-3.73-10.76s12.66,13.63,15.14,19.21c1.82,4.1,2.9,13.19,3,17.67.11,4.79-2.33,19-2.33,19s6.82-19.73,7.21-26.61c.28-5-1.56-15.09-3.06-19.89C642.25,36.86,634.23,22.26,634.23,22.26Z" />
        <path id="Petal_3-12" data-name="Petal 3" class="cls-11" d="M671,164.25c-8.24,24.48-64.92,80.49-64.92,80.49l-26.79,5.93S521,204,502.72,188c-7.1-6.25-37.33-30.59-37.33-30.59s30.15,11.14,36.6,14.41c8.81,4.47,44.62,12.16,44.62,12.16s-10.15-11.29-13.52-17.21c-3.57-6.25-18.84-10-23.49-15.53-6.2-7.34-48.91-42.73-48.91-42.73s40.31,26.32,56.41,32.61c9.62,3.76,30.53,15,37.36,22.77,4.29,4.85,2.64-14.13-3-25.48-2.85-5.78-37.79-57.13-37.79-57.13s15,13.91,18.53,19.69c14.19,23,41.42,43,41.42,43s.54-22.64-5.67-33.26c-2.66-4.54-12.27-22.29-12.27-22.29s14,8.71,20.63,16.29c6.78,7.8,25.51,50.82,25.51,50.82s-7.81-35-10.31-46.67c-1.72-8-6.7-32.23-6.7-32.23s25.39,29,30.25,40.67c3.52,8.48,5.38,36.31,5.38,36.31s24.17-39.42,26.36-54.36c1.09-7.41-4.79-29.58-4.79-29.58s24,42.54,27.83,58.21C672,136.67,673.9,155.61,671,164.25Z" />
    </g>
    <g id="Poppy_Pollen" data-name="Poppy Pollen">
        <path class="cls-12" d="M582.13,140c-1.69-19.15-2.32-23.27-5.7-24.93-6.16-3,2,7.56,3.84,24,2,17.63.09,25.42.09,25.42-.79-9.5.17-19.51-3-26.67-6.76-15.15-7.42-24.94-11.6-19.51-2.3,3,3.36,3.22,10.33,21.14,3,7.65,2.16,24.82,2.16,24.82s-4.87-20.5-8.83-29.3c-5.19-11.54-7.68-20.67-11.76-18s2.69,2.34,9.67,17.06c3.74,7.89,8.37,28,8.37,28s-7.33-19.3-12.32-25.16c-6.26-7.36-9.63-16.37-13.5-12.42s4.55,3.31,13.22,14.82C567.36,145,574,161.51,574,161.51s-6.21-14.33-11.45-19.12c-9.72-8.89-11.79-15.19-14.94-11.66s5.43,4,15.35,14c4.48,4.52,11.82,20.37,11.82,20.37S560,148.35,555.67,144c-3.25-3.27-7-12.44-10.32-9.22s8.4,8.36,11.55,11.87c4.13,4.61,15.41,19.45,15.41,19.45s-9.82-5.27-14.2-9.65c-3.34-3.34-7.72-15.35-11.22-12.18s5.55,7.38,8.64,10.8c4.08,4.52,15.95,14.35,15.95,14.35S554.56,160,550.3,155.29c-9.44-10.45-9.41-19-13.16-16.08s2.47,5.36,10.81,15.54c4.5,5.49,21.4,16.09,21.4,16.09s-19-11.15-24.47-15.75c-11-9.29-9.91-17.64-14.08-14s4.65,7.5,11.66,14.16C548,160.54,567.29,172,567.29,172s-20.2-8.82-27.89-13c-14.34-7.79-13.58-14.53-16.53-10.61s6.06,6.92,17.33,12.74c8.59,4.44,23,14.32,23,14.32s-11.4-4-18.88-7.43c-17.55-8-17.46-13.61-20.57-11.49-5.67,3.85.46,3.61,18.87,12.67,16.5,8.11,16.18,11.55,16.18,11.55s-22.4-7.17-27.88-10.06c-4.18-2.2-11.93-12.39-14.33-8.33s7.49,5.41,11.46,7.77c5.24,3.12,28.79,13.73,28.79,13.73S536,180.27,530.49,177c-12.12-7.2-14.63-15.41-17.34-11.49s3.95,4.39,14.94,11.66c5.92,3.92,29.26,8.75,29.26,8.75s-25.51-4.73-32.09-7.51c-13.28-5.62-14.7-13.93-17.61-9.23S514.32,175,523,179.28c6.9,3.42,35.69,9.52,35.69,9.52s-28.93-3.29-37.51-5c-16-3.22-17.28-9.88-18.93-5.26s7.84,4.82,20.33,7.07c9.52,1.71,38.89,5.14,38.89,5.14S536.7,192,528.54,191c-19.12-2.44-20.71-7.85-23.06-4.92-4.27,5.35,5.42,3.63,21.79,6.54,7.75,1.38,34.41,2.21,43.67-.16,3.65-.93,9-5.25,13.21-8.72,9-7.42,19.73-31.69,21.38-37.54,1.25-4.43,3.72-14.82-.71-16.09s1.15,10.68-1.6,18C601,153.9,593,163.85,593,163.85s5.87-18.68,7.53-24.63c1.27-4.54,5.91-16.86,1.43-18.33s-.33,9-3.33,19.65c-1.65,5.85-7.89,20.31-7.89,20.31s1.49-14.67,3.51-20.7c4.47-13.34,8.3-20.14,3.88-21.94s.22,7.38-4.56,19.64c-2.57,6.6-5.17,22.94-5.17,22.94s2-18.43,3.36-25.43c2.68-14.14,6.83-19.88,1.61-21.72s-.58,10.32-2.93,19.69c-1.88,7.45-5,28.88-5,28.88s.29-21,.15-29.69c-.26-16.28,2.31-21.54-2.56-22.16s.63,11.27,1.09,23.91c.35,9.64-1.43,28.57-1.43,28.57S582.85,148.21,582.13,140Z" />
        <path class="cls-13" d="M593.41,191.7l89.05,128.83-12.24,7.54L581.17,199.24s-35.43-9.82-43.92-21.31-3.89-29.23,10.27-39.63,32.51-9.5,41,2S593.41,191.7,593.41,191.7Z" />
        <path class="cls-14" d="M528.08,161.75c-.46,1.09-1.19,4.22-.16,4.5s5-2,6.27-3.42,3.79-6.59,3.79-6.59a40.18,40.18,0,0,0-.19,6.58c.32,1.79,2.59,6.35,3.77,6,.95-.31,2.07-6,2.52-8,.34-1.47,1.34-5.64,1.34-5.64s1.68,2.92,2.32,3.85c.89,1.3,3.69,4.72,4.75,4.12,1.29-.72,2.11-6,2.32-8.14.14-1.4.35-5.61.35-5.61s2.89,1.94,3.91,2.51c1.82,1,6.26,2.7,8,1.25,1.3-1.1.66-6.44.05-8.47-.41-1.35-2-4.78-2-4.78a79.75,79.75,0,0,0,8.55-1.38c1.21-.37,4.14-1,4.57-2.15.28-.76-2.18-2.23-3-2.42a29.2,29.2,0,0,0-4.86-.36s5.7-2.29,7.59-3.12c.87-.38,3.27-1.75,3.24-2.12-.06-.75-2.82-1-3.87-1a59.4,59.4,0,0,0-6.44,1.25s6.06-3.59,5.71-3.74c-2.52-1.06-6.87,1.81-12.63,3.12-5.61,1.28-11.08,4.21-16.75,8.26-4,2.82-8.44,5.9-11,10.12a30.39,30.39,0,0,1-6.55,8c-3.87,3.26-5.5,6.91-5.34,9.08,0,.36,5.89-5.46,5.89-5.46S528.46,160.85,528.08,161.75Z" />
        <path class="cls-15" d="M528.08,161.75c-.46,1.09-1.19,4.22-.16,4.5s4.86-4.75,6.14-6.13,7.22-12.81,7.22-12.81-3.79,13.85-3.49,15.5,2.59,6.35,3.77,6c.95-.31.79-5.21,1.24-7.18.34-1.47,2.52-13.48,2.52-13.48s1.78,10,2.42,10.9c.89,1.3,3.69,4.72,4.75,4.12,1.29-.72-.38-7-.17-9.07.14-1.4.4-9,.4-9s6.27,5.14,7.29,5.71c1.82,1,5.31,3.79,7,2.34,1.3-1.1.66-6.44.05-8.47-.41-1.35-8.15-5.55-8.15-5.55s10.91-.75,13-1.39c1.21-.37,5.86-.19,6.28-1.38.28-.76-2.18-2.23-3-2.42-1.6-.37-11.18-.23-11.18-.23s11-2.52,12.94-3.35c.87-.38,4.25-1.65,4.22-2-.06-.75-2.82-1-3.87-1-1.63.08-11.18,2.26-11.18,2.26s10.8-4.6,10.45-4.75c-2.52-1.06-6.87,1.81-12.63,3.12-5.61,1.28-11.08,4.21-16.75,8.26-4,2.82-8.44,5.9-11,10.12a30.39,30.39,0,0,1-6.55,8c-3.87,3.26-5.5,6.91-5.34,9.08,0,.36,7.77-8.6,7.77-8.6S528.46,160.85,528.08,161.75Z" />
        <path class="cls-16" d="M537.24,149.24a42.2,42.2,0,0,0-1.86,4.09,3.7,3.7,0,0,0,2.26.79c.26,0,3-5.67,3-5.67s-1.75,5.66-1.51,5.63a21.31,21.31,0,0,0,5.46-1.49c.24-.1.6-5.35.6-5.35s.44,4.91.59,4.85a50.37,50.37,0,0,0,7.62-4.25c.23-.16-1.67-4.3-1.67-4.3s2.6,3.66,2.72,3.58l.36-.26a54.09,54.09,0,0,0,6.69-5.6c.39-.39-3.87-2.72-3.87-2.72s5.67.82,6,.45a21.83,21.83,0,0,0,3-4.31c.18-.36-5.6-.25-5.6-.25s6.28-1.49,6.35-1.81a3.49,3.49,0,0,0-.07-2,19,19,0,0,0-3.27.42s2.7-1.28,2.52-1.42c-2.74-2.09-11,.68-19.31,6.59-8.44,6-13.79,13.12-12.41,16.29C534.88,152.7,537.24,149.24,537.24,149.24Z" />
        <path class="cls-17" d="M541.14,144.61c1.05,1.46,5.48.1,9.89-3.05s7.14-6.89,6.09-8.35-5.48-.1-9.89,3.05S540.09,143.15,541.14,144.61Z" />
        <path class="cls-17" d="M543.67,141.89c.67.93,3.48.06,6.28-1.94s4.53-4.37,3.86-5.3-3.48-.06-6.28,1.94S543,141,543.67,141.89Z" />
        <path class="cls-18" d="M594.25,176.76c2.12-6.81,3.9-21.55,3.21-26.78-1.45-11,.88-18-4.39-14.33-2.89,2,2,2.41,2.8,15.44.34,5.56-2.7,23-2.7,23s-.95-20-1.81-26.47c-1.13-8.42-.62-15-5-13.24s1.67,1.76,3.43,12.51c.94,5.76,1.8,25.52,1.8,25.52s-3.46-19.28-6.1-23.64c-3.31-5.47-3.59-12-8.16-9.34s3,2.53,7.2,11c2.08,4.21,5.76,21.45,5.76,21.45s-3.95-15.7-7.12-19.3c-5.89-6.68-5.84-11.25-9.64-8.84s3.57,3.06,9.31,10.54c2.59,3.38,5.4,16.88,5.4,16.88s-9.09-14.42-11.57-17.65c-1.88-2.45-2.47-9.12-6.32-6.94s4.89,6.26,6.61,8.87c2.26,3.43,10.49,19.68,10.49,19.68s-9.79-9.37-12.33-12.65c-1.94-2.5-2.23-11.22-6.23-9.08s2.68,5.46,4.38,8c2.24,3.37,12.48,16.06,12.48,16.06s-12-7.33-14.37-10.85c-5.19-7.79-2.61-13.91-6.77-11.94s.58,3.91,4.88,11.46c2.32,4.07,14,12.24,14,12.24s-13.36-8.63-16.79-12.1c-6.91-7-3.47-12.93-8.2-10.49s1.85,5.51,6,10.51c3.32,4,16.79,12.84,16.79,12.84s-15.1-7-20.6-10.26c-10.26-6.07-7.61-10.84-11.35-8.15s3.27,5.15,11.42,9.7c6.21,3.47,15.92,11,15.92,11s-8.8-3.28-14.36-6c-13-6.3-11.28-10.32-14.63-8.93-6.11,2.54-.66,2.59,12.8,9.7,12.06,6.37,10.77,8.81,10.77,8.81s-17.51-5.91-21.46-8.17c-3-1.72-6.79-9.26-10.1-6.45s5,4.13,7.74,5.95c3.67,2.41,21.17,10.81,21.17,10.81s-17.23-3.31-21.07-5.82c-8.49-5.56-8.26-11.51-11.8-8.81s2.16,3.27,9.64,8.84c4,3,23.06,7.28,23.06,7.28s-21-4.28-25.91-6.5c-10-4.48-8.76-10.45-12.7-7.21s4.13,4.37,10.46,7.74c5,2.68,28.47,8.06,28.47,8.06s-24.38-3.38-31.39-4.91c-13.08-2.86-12.23-7.66-15-4.43s5.45,3.72,15.73,5.76c7.84,1.56,32.57,5.05,32.57,5.05s-22.08,0-28.92-1c-16-2.42-15.83-6.34-18.76-4.33-5.33,3.66,3.67,2.78,17.16,5.44,6.38,1.26,24.81,2.48,33.64,1.12,3.48-.54,9-4.74,11.68-6.92C588.43,184.29,593.34,179.67,594.25,176.76Z" />
    </g>
    <g id="Petal_2" data-name="Petal 2" >
        <path id="Petal_2-2" data-name="Petal 2" class="cls-19" d="M407.08,181.54s1.55-7.47.13-9.77c-1.07-1.72-4.94-.74-6-2.49-.78-1.34,1-5.58,1-5.58s-1.55-2.67-1.34-3.58,2.77-1.71,2.77-1.71l2.17-4.57s-3.34-3.37-2.9-4.67,5-2.81,5-2.81l.75-1.64,4-2.49,10.45,11.17a26.8,26.8,0,0,0,2.5,4c.77.61,2.92,0,2.92,0s2.08,4.05,3.16,5.1c1.62,1.58,7.83,4.57,7.83,4.57a62.13,62.13,0,0,0,6.34,5.48c1.15.69,4,1.08,5,1.91.54.42.88,2,1.45,2.34,3.72,2.49,13.24,2.37,17.69,2.9a106.09,106.09,0,0,0,11.09.8c3-.07,8.82-1.43,11.79-1.39a34.9,34.9,0,0,1,7.75,1.1c3.52,1.14,13.1,6.9,13.1,6.9l20.79-1.36,9.76,7.2,2.42-6.78,5.21-5.85,5.39-2,14.11-10L576,154.11l3.44-3,1.3-4.32,3-2.29.78-4.44,6.76-5.48,3.29-4.67,5.75-3.54.73-4-8.3-18.24.94-7L575.31,74l2.88-1.77,4.58.26L571.51,54.29l4.32-4.42,7.94-3.57L586.43,42l6.22-2.07,2.65-4.27L601,32.13l5.4-5.53,7.77-1.71,7.43-3.69,8.49-1.27,21.18,53.42,13,33.81,1.87,15.13,2.07,15.45-4.87,41.3-14,35.06-28.09,19.5-14.7,9.05-13.21,5.05L579,249.52,566,256.25l-47-1-45.25-26.71-36.87-31s-9.25-7.79-13-9.22S407.08,181.54,407.08,181.54Z" />
        <path id="Petal_2-3" data-name="Petal 2" class="cls-7" d="M423.21,153.41l-7.36-7.71a52.3,52.3,0,0,1-3.65,5.61c-.57.63-2.29,1.34-2.68,2.09-.76,1.46-1.37,6.34-1.37,6.34s6.12-1.09,7.71-1.81C417.83,157.05,423.21,153.41,423.21,153.41Z" />
        <path id="Petal_2-4" data-name="Petal 2" class="cls-7" d="M451,174.47c-1.06-.82-3.86-1.22-5-1.91a62.13,62.13,0,0,1-6.34-5.48s-6.21-3-7.83-4.57c-1.08-1-3.16-5.1-3.16-5.1s-2.15.64-2.92,0a50.78,50.78,0,0,0-1,6.88,48,48,0,0,0,1.34,6.44,52.33,52.33,0,0,1,6.36-1.13,44.35,44.35,0,0,1,8.49,1.23C443.47,171.51,451,174.47,451,174.47Z" />
        <path id="Petal_2-5" data-name="Petal 2" class="cls-7" d="M407.21,171.78c-1.52-1.35-4.94-.74-6-2.49-.78-1.34,1-5.58,1-5.58s-1.55-2.67-1.34-3.58,2.77-1.71,2.77-1.71,11.26,8.27,15,11c5.42,3.88,16.58,11.22,21.85,15.3,4.09,3.18,11.88,10,15.72,13.5,3.12,2.82,9,8.88,12.18,11.58a190.07,190.07,0,0,0,17.21,12.58c6,3.63,25.07,12.44,25.07,12.44s-23.78-8.08-31.06-12.12c-3.82-2.12-10.56-7.76-14-10.46-6.62-5.21-19.2-16.47-26-21.49-4.69-3.47-14.37-10-19.46-12.88C417.11,176.09,409.9,174.16,407.21,171.78Z" />
        <path id="Petal_2-6" data-name="Petal 2" class="cls-7" d="M426,170.76l19.38,10.37s15.87,10.15,21.55,15.78c3.33,3.3,16.32,16.36,16.32,16.36s-9.46-13.47-12.2-16.84c-1.67-2-12.71-6.69-12.71-6.69s-6.79-6.81-8.89-8.36C443.85,177.27,426,170.76,426,170.76Z" />
        <path id="Petal_2-7" data-name="Petal 2" class="cls-8" d="M534.63,185.74l-20.79,1.36s-9.58-5.76-13.1-6.9a34.9,34.9,0,0,0-7.75-1.1c-3,0-8.82,1.33-11.79,1.39a106.09,106.09,0,0,1-11.09-.8c-4.45-.52-14-.41-17.69-2.9,0,0,8,3.54,10.83,4.18,2.58.59,10.53.85,10.53.85s6.42,5.55,8.64,7.3c3.64,2.85,15,10.88,15,10.88s-4.09-5.74-5.57-7.57c-1.84-2.27-7.76-8.72-7.76-8.72s6.92,2,8.85,3.35c2.76,2,6.26,8,8.75,10.31a62.76,62.76,0,0,0,11.12,8c5.46,2.65,23.32,6.76,23.32,6.76s-5-8.49-7.27-10.78c-2.68-2.67-12.56-8.4-12.56-8.4l7-2a77.61,77.61,0,0,0,6.47,5.7c4.58,3,19.83,9.21,19.83,9.21l7.46-4.59Z" />
        <path id="Petal_2-8" data-name="Petal 2" class="cls-8" d="M600.28,126.37l-5.75,3.54-3.29,4.67-6.76,5.48-.78,4.44-3,2.29-1.3,4.32-3.44,3-4.45,14.19-14.11,10-5.39,2-5.21,5.85-2.42,6.78s10.08.77,13.17,2c4.64,1.86,12.86,7.94,16.38,11.48,8.27,8.31,26.71,38.51,26.71,38.51s20.21-38.72,24.12-52.66c2-7.25,4.92-22.08,2.26-29.13C620.84,146.72,600.28,126.37,600.28,126.37Z" />
        <path id="Petal_2-9" data-name="Petal 2" class="cls-20" d="M576,154.11l-4.45,14.19s5.36,8.82,6.57,12c1.71,4.55,4.24,19,4.24,19s-1.58-18.22-2.44-24.25C579.12,169.77,576,154.11,576,154.11Z" />
        <path id="Petal_2-10" data-name="Petal 2" class="cls-7" d="M600.28,126.37l.73-4-8.3-18.24s8.48,3.1,11.45,3.51c1.19.17,3.74-.67,4.8-.09,1.86,1,5.82,5.57,4.44,7.17A76.06,76.06,0,0,1,600.28,126.37Z" />
        <path id="Petal_2-11" data-name="Petal 2" class="cls-7" d="M575.31,74l18.34,23.19s3.21-2.56,3.79-4c1.88-4.57-1.81-5.34-2.42-7.44-.41-1.4-4.87-3.68-4.87-3.68a36.89,36.89,0,0,0-3.78-4.63C583.91,75.45,575.31,74,575.31,74Z" />
        <path id="Petal_2-12" data-name="Petal 2" class="cls-7" d="M582.76,72.45,571.51,54.29a46.93,46.93,0,0,1,5.86.11c1.83.33,5.91,1,7,2.5.68.91-.09,3.45.25,4.54.43,1.38,2.76,3.49,3,4.91s.06,4.42-.9,5.4C586.06,72.46,582.76,72.45,582.76,72.45Z" />
        <path id="Petal_2-13" data-name="Petal 2" class="cls-10" d="M627.44,163.79l6.5,29s-1.93-31.27-4.23-41.42c-2.21-9.77-10.28-28.74-16.31-36.62a64,64,0,0,1-13.12,11.6S621.23,147.36,627.44,163.79Z" />
        <path id="Petal_2-14" data-name="Petal 2" class="cls-7" d="M633.94,192.8s-1.93-31.27-4.23-41.42c-2.21-9.77-8.37-29.92-14.39-37.8L605.07,99.35s17.79,23.57,23.29,31.73c2.36,3.49,7.08,10.53,8.88,14.34,2.09,4.41,6.59,18.39,6.59,18.39s1.84-14.31.62-18.87c-1.81-6.79-10.95-18-14.81-23.9-5.77-8.78-24-34.5-24-34.5s22,24.88,28.46,33.83c3.92,5.41,11.86,16.43,14.08,22.73,1.75,5,2.57,20.87,2.57,20.87Z" />
        <path id="Petal_2-15" data-name="Petal 2" class="cls-8" d="M621.65,21.2l-7.43,3.69-7.77,1.71L601,32.13l-5.75,3.54-2.65,4.27L586.43,42l-2.65,4.27-7.94,3.57a69.64,69.64,0,0,1,7,4.49c3.61,3.2,9.32,11.08,12.29,14.88C599,74.16,610,89.34,610,89.34s-5.94-18.17-9-23.75c-2-3.72-10-13.64-10-13.64a25.25,25.25,0,0,1,2.51,1.54,50.09,50.09,0,0,1,5.26,6,74.41,74.41,0,0,1,5.35,7.93c2.57,4.89,8.09,20.55,8.09,20.55s2.61-19.81,1-26.16c-.47-1.86-3-4.94-3.89-6.63-1.8-3.3-6.78-13.43-6.78-13.43L611.43,56a33,33,0,0,1,1.92,3.11,67.1,67.1,0,0,1,2,7.45s3-13.94,2-18.48c-.68-3.21-6.59-11.35-6.59-11.35s7.14,5.19,8.7,7.63c.87,1.35,1.55,4.58,1.83,6.16.38,2.14.52,8.68.52,8.68s4.06-13.66,4.08-18.36C625.89,35.82,621.65,21.2,621.65,21.2Z" />
    </g>
    <g id="Petal_1" data-name="Petal 1" >
        <polygon id="Underlayer" class="cls-21" points="418.89 237.66 424.65 234.12 427.67 229.02 434.27 231.12 440.9 232.32 444.95 229.83 449.85 226.81 458.6 229.05 463.83 228.47 467.86 228.33 478.51 221.77 485.93 220.43 493.52 219.86 497.29 219.53 501.48 220.24 504.84 218.18 507.55 218.27 509.48 210.7 516.03 206.66 519.41 203.92 522.97 200.41 525.58 200.34 530.85 197.09 531.72 194.57 534.28 195.86 539.43 193.13 543.28 194.71 545.73 194.75 550.21 191.99 557.49 189.49 562.93 187.23 565.77 189.67 573.35 183.02 573.02 180.36 576.59 179.7 582.75 175.03 590.69 174.32 594.69 171.86 598.84 173.92 605.1 172.27 611.7 172.6 616.47 172.09 623.65 167.66 626.84 167.46 629.35 164.38 636.11 161.75 641.13 156.68 645.1 152.03 649.37 150.72 655.64 145.53 661.78 144.4 671.77 137.36 677.12 134.95 683.29 134.23 689.35 129.39 706.46 119.95 705.05 130.51 709.85 127.56 717.19 127.65 716.99 139.44 710.97 149.32 693.76 178.19 683.81 188.5 678.48 187.38 678.86 191.55 673.55 192.61 666.87 198.93 652.45 211.99 631.87 226.87 620.04 234.16 602.15 245.18 580.12 250.6 565.73 258.37 537.46 266.54 507.1 270.27 477.14 265.39 446.21 252.53 430.2 245.22 418.89 237.66" />
        <path id="Mid-lower" class="cls-10" d="M580.12,250.6l-14.39,7.77s-12.08,4.52-16.33,4.72c-9.54.44-28.69-3.53-37.51-7.18-7.65-3.17-27.41-18.59-27.41-18.59s35.11,9,46.92,11.6c5.59,1.21,22.47,4.21,22.47,4.21L537.63,237.6s9.37,5.43,12.46,7.29c1.8,1.08.94,2.94,7.14,4.4,4.55,1.07,10.83.37,10.83.37s-2.69-4-6.17-8.53c-2.28-2.95-9.3-6.24-12.3-8.45-1.33-1-5.19-4.1-5.19-4.1l14.18,5.79a42.26,42.26,0,0,0-2.64-5,41.05,41.05,0,0,0-4-3.67s6.42,2,8.22,3.3c2.33,1.65,5.59,6.47,7.52,8.57C570.69,240.92,580.12,250.6,580.12,250.6Z" />
        <g id="Midtones" class="cls-22">
            <path id="Petal_1-2" data-name="Petal 1" class="cls-23" d="M582.75,175l-6.16,4.67-3.57.66.32,2.66-7.58,6.65-2.83-2.44-5.45,2.25-7.28,2.5-4.47,2.76-2.45,0-3.85-1.59-5.15,2.73-2.56-1.28-.87,2.52-5.27,3.25-2.61.07-3.56,3.51L516,206.66l-6.55,4-1.93,7.57-2.71-.09s9.24,4.53,12.6,5c3.58.51,10.77-1.5,14.38-1.37,2.57.09,10.16,1.67,10.16,1.67l-2.9-4.67L536,216.62l3.3-.86-7.83-.76-4.88-1.69,9-1.54s5.3-3.74,7.38-4.15c2.46-.49,7.44,1.21,9.95,1.2s7.6-1.9,10.07-1.32,5.67,5,8.06,5.41c1.54.25,6-1.66,6-1.66l-2.5-4a30.66,30.66,0,0,0,5.06,2.46,18.83,18.83,0,0,0,7-.18,15.64,15.64,0,0,0,5.54-3.41,13.11,13.11,0,0,0,1.21-2.8l-29-4.46s9.34-2.31,12.53-2.58c2-.17,8.12.28,8.12.28s7-5.14,8.6-7.5c1-1.49,1.29-5.38,2.42-6.78,1.54-1.89,8.31-5.12,8.31-5.12l3.52-2.17-2.77-2.69-6.3,1.83-4.11-2.24-4,2.51Z" />
            <path class="cls-23" d="M419.73,237.58l20,5.26s16.94,6.13,22.78,7.54c1.68.41,5.17.63,6.84,1.07,3.57.94,13.81,5.18,13.81,5.18s-9.16-7.44-12.51-9.5a98.7,98.7,0,0,0-10.75-5.24c-3.61-1.48-14.79-5-14.79-5l-17.72-7.58-2.13,4.4Z" />
            <path class="cls-23" d="M468,228.54l9.91-6.1L494,220s17,3.11,21.86,6.78c2.1,1.58,5,7.35,7.2,8.77,3.67,2.36,7.55.62,9.94,1.8,7.94,3.91,15.75,11.87,15.75,11.87L528,241.32l3,4.78s-27-6.47-33.8-8.23C488,235.48,468,228.54,468,228.54Z" />
            <path id="Underlayer-2" data-name="Underlayer" class="cls-23" d="M641.13,156.67l4-4.64,4.27-1.31,6.28-5.19,6.14-1.14,10-7,5.35-2.41,6.18-.72,6.06-4.83L706.46,120s-.83,8-1.41,10.55a175.15,175.15,0,0,1-5.91,18.61,244.58,244.58,0,0,1-10.71,23.33c-2.19,3.92-10,14.93-10,14.93l-17.55,16.94-29.06,22.56L605.5,243.11s10.43-19.92,14.05-26.49c3.35-6.06,11.32-17.56,13.81-24C636.67,184,641.13,156.67,641.13,156.67Z" />
        </g>
        <path id="Underlayer-3" data-name="Underlayer" class="cls-10" d="M631.87,226.87,652.45,212l14.42-13.07,6.68-6.32,5.3-1.06-.38-4.17,5.33,1.12,9.95-10.31L711,149.32l6-9.87.2-11.79-7.35-.1-4.79,3-7.48-.67-7.83,4.82-4.15,2.56-2.33,4.08-4.38.06s-8.54,14.82-11.73,19.55c-1.29,1.92-4.56,5.32-5.57,7.39-1.64,3.35-2.56,10.91-3.89,14.39-1.06,2.78-4.2,7.89-5.32,10.65a99.4,99.4,0,0,0-3.16,9.87c-.34,1.35-1,5.47-1,5.47l-3.86.18-1.53-3.9s-2.22,7.49-3.87,9.43c-.91,1.07-4.79,3-4.79,3l-.43-8.54.92-8.49,1.74-5s-5.54,6-6.65,8.5a30.31,30.31,0,0,0-2,10.95C627.89,217.93,631.87,226.87,631.87,226.87Z" />
        <g id="Darkest">
            <polygon id="Underlayer-4" data-name="Underlayer" class="cls-24" points="631.87 226.87 620.04 234.16 602.15 245.18 580.12 250.6 565.73 258.37 558.11 259.02 556.93 257.11 554.82 253.71 557.16 252.27 554.24 248.5 557.21 249.01 558.29 246 560.42 244.69 563.55 244.52 563.94 241.35 561.04 236.68 565.28 238.76 567.8 238.09 568.8 235.42 571.95 236.71 574.46 234.57 578.17 235.81 578.13 232.9 579.71 233.54 582.48 235.65 584.66 234.89 583.1 229.99 586.63 231.18 588.13 231.88 589.53 230.87 590.02 228.81 592.87 231.75 595.93 229.56 597.6 231.07 599.36 228.92 601.63 230.45 603.78 228.69 604.64 225.81 605.62 222.87 606.23 225.75 607.26 227.43 609.72 226.65 611 225.86 609.81 228.21 611.93 229.25 613.01 228.15 614.2 223.89 615.43 227.53 616.38 230.03 617.88 229.84 620.18 227.84 620.15 224.48 621.97 227.17 623.53 223.28 623.48 227.71 624.69 229.9 631.87 226.87" />
            <path id="Darkest-2" data-name="Darkest" class="cls-25" d="M620,234.16l-17.9,11-22,5.42-14.39,7.77s-5.22-1.16-6.68-2.12a10.17,10.17,0,0,1-2.44-2.75,19,19,0,0,1-.9-3.11l3.87,3.63a27.32,27.32,0,0,0,3.5,1.37,24.92,24.92,0,0,0,3.42.06A8.24,8.24,0,0,0,567,253a8.38,8.38,0,0,0-2.25-3.16c-.57-.5-2.16-.88-2.66-1.44a11.72,11.72,0,0,1-1.15-2.81s2.37,1.9,3.33,2.06c.59.09,1.73-.65,2.31-.54a7.55,7.55,0,0,1,2.51,1.68c.8.72,1.72,3.07,2.77,3.28s4.25-2.17,4.25-2.17l-2.83-2.66a14.59,14.59,0,0,1-2.8-2.38c-.59-1-.92-4.57-.92-4.57a43,43,0,0,0,3.3,4.13,32.19,32.19,0,0,0,3.47,2.27c.65.41,2.62,1.61,2.62,1.61l2-1.07s.44-2.43.11-3.15-2.42-1.53-2.91-2.32a10.27,10.27,0,0,1-.57-2.58,26,26,0,0,0,3.71,3.14c.9.44,3.06.34,3.91.85a14,14,0,0,1,2.25,2.68l4-.24a18.44,18.44,0,0,1-2.51-2.86,18.18,18.18,0,0,1-.67-3.7,27.92,27.92,0,0,1,2.55,1.51,45.62,45.62,0,0,1,3.35,3.51l3.53-.71s-2.32-2.47-2.62-3.52a8.53,8.53,0,0,1,.35-4.18,8.76,8.76,0,0,1,1.38-1.58s1.2,3.57,2,4.47a9.8,9.8,0,0,0,3.78,2.07,9.9,9.9,0,0,0,2.12-.13l-.32-2.89a21.42,21.42,0,0,1,.35-4.18,14,14,0,0,1,1.54-2.27l2.11-2.29-1.06,5.9.65,3.42s2.92.05,3.67-.5,1.12-2.1,1.32-2.86a24.8,24.8,0,0,0,.26-3.39l.65-4.65,1.37,4.59.41,3.27a24.39,24.39,0,0,0,3.76-3.2,12.69,12.69,0,0,0,.85-2.43l.42-2.17,1.07,3.15.51,1.3Z" />
        </g>
        <path id="Brightest" class="cls-11" d="M586.1,180.45c.18,1.29-1.46,5-1.46,5l-5.53,7.22-11.25,3.7-5.84,2s-1.67-4-2.86-4.62c-1.41-.77-6.41.1-6.41.1l5.06,2-1.87,1.74-6.52,3.72-10.47-3.12,8.5,4.34-2.24,2,0,2.69-5.35,1.1s-2.29-5.1-3.78-6.11c-2.22-1.49-10.54-1.8-10.54-1.8L538,208.93l-3,3.64-5.9-.26s-1-2.34-1.68-2.71c-1.7-.89-7.68.44-7.68.44l4.38,2.67,3.43,2.09-5.92,5.41L513,222.15s-11.79,5.09-15.45,3.57C496,225.07,494,220,494,220l3.07-.41,4.37.66,3.36-2.07,2.71.09,1.93-7.57,6.55-4,3.38-2.74L523,200.4l2.61-.07,5.27-3.25.87-2.52,2.56,1.28,5.15-2.73,3.85,1.59,2.45,0,4.47-2.76,7.28-2.5,5.45-2.25,2.83,2.44,7.58-6.65-.32-2.66,3.57-.66,6.16-4.67S585.89,178.87,586.1,180.45Z" />
    </g>
</svg>